<?xml version="1.0" standalone="no"?>
<!DOCTYPE svg PUBLIC "-//W3C//DTD SVG 20010904//EN"
 "http://www.w3.org/TR/2001/REC-SVG-20010904/DTD/svg10.dtd">
<svg version="1.0" xmlns="http://www.w3.org/2000/svg"
 width="1024.000000pt" height="1024.000000pt" viewBox="0 0 1024.000000 1024.000000"
 preserveAspectRatio="xMidYMid meet">
<metadata>
Created by potrace 1.14, written by Peter Selinger 2001-2017
</metadata>
<g transform="translate(0.000000,1024.000000) scale(0.100000,-0.100000)"
fill="#000000" stroke="none">
<path d="M2913 10193 c0 -7 4 -13 8 -13 4 0 9 6 12 13 3 8 0 14 -7 14 -7 0
-13 -6 -13 -14z"/>
<path d="M2880 10192 c0 -7 -4 -11 -9 -7 -5 3 -12 1 -16 -5 -4 -6 -22 -9 -41
-7 -19 3 -34 0 -34 -4 0 -5 5 -9 12 -9 6 0 9 -3 5 -6 -3 -3 -13 -1 -23 4 -12
7 -24 6 -36 -2 -14 -8 -20 -8 -27 2 -4 7 -14 14 -22 15 -8 2 -20 6 -27 11 -11
7 -11 4 -1 -13 8 -11 16 -16 19 -11 3 5 12 -1 19 -13 12 -19 12 -20 0 -11 -12
8 -53 12 -61 4 -2 -1 -11 -3 -21 -5 -10 -2 -25 -12 -33 -22 -13 -16 -13 -15
-3 9 8 18 18 25 30 23 16 -3 17 -1 6 16 -6 10 -13 15 -15 9 -2 -6 -9 -7 -14
-4 -6 4 -8 3 -5 -3 4 -5 -5 -20 -18 -31 -14 -12 -25 -18 -25 -13 0 5 -9 11
-20 14 -25 6 -25 3 -2 -19 16 -17 16 -17 0 -11 -11 4 -22 -1 -31 -14 -13 -17
-15 -18 -21 -4 -4 10 -2 14 6 9 7 -5 8 -3 3 6 -5 8 -4 11 3 6 6 -3 13 -2 16 3
8 13 -19 8 -37 -7 -10 -9 -17 -10 -22 -2 -3 5 -11 10 -18 10 -6 0 -3 -6 6 -13
16 -11 16 -14 2 -32 -16 -20 -16 -20 -10 1 4 15 0 24 -11 28 -13 5 -14 4 -6
-7 16 -18 6 -26 -26 -22 -15 2 -21 2 -14 -1 6 -3 10 -9 8 -13 -3 -4 1 -8 9 -8
8 0 12 4 9 9 -8 13 2 9 14 -5 9 -10 6 -13 -16 -13 -15 1 -34 5 -42 10 -12 8
-13 7 -3 -6 13 -15 8 -28 -9 -28 -5 0 -7 4 -3 9 3 5 1 12 -4 15 -4 3 -8 -2 -8
-12 0 -36 -4 -42 -45 -61 -41 -18 -48 -31 -49 -86 0 -16 -2 -17 -9 -5 -5 8
-10 11 -10 6 0 -5 -7 -2 -17 5 -15 13 -15 12 -3 -10 11 -22 10 -27 -9 -42 -21
-17 -30 -36 -12 -24 5 3 12 1 15 -4 4 -5 -2 -8 -11 -6 -10 2 -22 4 -28 5 -5 0
1 10 15 22 14 12 18 19 9 15 -9 -3 -22 0 -28 6 -8 8 -11 8 -11 -1 0 -7 6 -12
13 -12 7 -1 5 -6 -6 -14 -15 -12 -16 -14 -2 -20 8 -3 15 -11 14 -18 0 -10 -2
-10 -6 0 -6 15 -33 16 -33 1 0 -8 -4 -8 -14 1 -13 10 -13 8 -3 -13 6 -14 15
-23 19 -21 5 3 8 1 8 -5 0 -12 -37 -24 -50 -16 -6 4 -7 -1 -3 -11 5 -13 3 -15
-7 -9 -9 6 -11 4 -5 -4 5 -9 10 -10 18 -2 21 21 27 11 7 -11 -18 -20 -22 -21
-31 -8 -9 13 -10 12 -5 -2 3 -11 0 -18 -7 -18 -8 -1 -6 -5 4 -13 14 -11 14
-14 -4 -32 -20 -20 -20 -20 -8 2 10 19 9 22 -4 17 -9 -4 -14 -9 -11 -12 3 -2
1 -14 -5 -25 -9 -15 -8 -18 3 -12 7 5 10 5 6 0 -4 -4 -2 -15 5 -23 7 -9 7 -13
1 -9 -17 10 -46 -27 -38 -49 6 -18 6 -18 -9 1 -16 20 -16 19 -12 -5 4 -24 4
-25 -11 -5 -16 19 -16 19 -9 -5 7 -22 6 -23 -9 -11 -20 17 -21 5 -2 -15 9 -9
17 -10 21 -4 3 5 11 10 18 10 6 0 1 -7 -11 -16 -12 -8 -26 -13 -30 -10 -13 8
-11 -27 2 -43 9 -12 8 -13 -3 -6 -11 6 -13 3 -9 -13 4 -12 2 -25 -3 -28 -5 -3
-6 -10 -3 -16 4 -6 10 -5 16 3 8 11 9 11 5 -1 -2 -8 -9 -14 -14 -13 -6 1 -18
-16 -28 -37 -10 -22 -22 -37 -26 -34 -5 3 -4 -7 2 -22 10 -27 9 -27 -9 -11
-15 14 -19 14 -19 2 0 -8 4 -12 8 -10 4 3 10 -3 14 -13 12 -25 14 -41 7 -41
-19 3 -32 -2 -32 -12 0 -6 9 -8 20 -4 11 4 20 2 20 -4 0 -6 -3 -10 -7 -10 -20
3 -30 -2 -30 -16 0 -8 4 -15 9 -15 4 0 8 -4 8 -8 0 -5 -7 -9 -15 -9 -8 0 -12
3 -10 7 2 3 -6 7 -18 7 -20 2 -20 1 -4 -8 20 -11 23 -30 5 -25 -7 1 -10 1 -5
-1 4 -3 7 -12 7 -21 0 -15 -2 -15 -11 -2 -9 13 -10 13 -6 -1 3 -9 0 -22 -6
-28 -9 -9 -8 -11 6 -5 10 3 17 3 16 -2 -4 -21 2 -35 11 -29 6 3 7 -1 4 -9 -3
-9 -10 -16 -16 -16 -5 0 -6 5 -3 10 14 23 -4 8 -20 -16 -9 -15 -12 -23 -6 -20
6 4 12 2 12 -3 3 -21 4 -26 13 -40 6 -10 5 -12 -2 -7 -8 5 -12 -1 -12 -18 0
-13 3 -26 8 -29 4 -2 1 -2 -6 -1 -11 3 -16 -9 -13 -28 0 -5 -4 -8 -11 -8 -6 0
-9 -3 -6 -6 4 -3 17 -1 30 6 21 10 21 10 5 -4 -10 -8 -18 -17 -17 -21 1 -4 -2
-10 -6 -13 -4 -4 -4 -1 0 5 5 9 2 11 -8 7 -15 -6 -31 -35 -18 -33 19 3 23 -2
13 -14 -8 -10 -7 -14 3 -14 8 0 13 8 11 18 -2 10 3 20 11 23 11 4 12 2 5 -13
-6 -10 -8 -21 -4 -24 3 -4 -2 -9 -11 -13 -13 -5 -14 -9 -5 -20 9 -11 9 -14 0
-14 -6 0 -14 7 -17 15 -4 8 -11 15 -16 15 -6 0 -6 -6 1 -14 7 -8 8 -16 4 -18
-4 -3 -2 -3 5 -2 6 2 12 -1 12 -6 0 -5 8 -7 18 -4 14 5 15 4 2 -5 -13 -9 -13
-13 -1 -33 13 -20 12 -22 -1 -11 -8 7 -19 9 -23 5 -5 -4 -5 1 -2 11 4 11 3 16
-4 12 -6 -4 -8 -13 -5 -21 3 -8 0 -14 -6 -14 -7 0 -4 -6 7 -13 12 -10 14 -16
7 -21 -7 -4 -12 -2 -12 4 0 6 -5 8 -11 4 -8 -5 -6 -10 5 -16 13 -7 14 -13 5
-29 -12 -22 -7 -35 10 -25 6 4 8 13 4 21 -3 8 1 15 8 15 7 0 9 -3 6 -6 -3 -4
-2 -15 4 -25 7 -15 6 -17 -6 -13 -10 4 -15 0 -15 -15 0 -12 5 -21 11 -21 6 0
1 -9 -12 -20 -13 -10 -19 -19 -14 -20 6 0 17 6 25 13 12 10 12 9 2 -4 -6 -9
-8 -20 -4 -24 4 -5 0 -6 -9 -3 -9 4 -22 2 -30 -3 -10 -6 -10 -9 -1 -9 15 0 16
-47 0 -52 -7 -3 -5 -7 6 -11 9 -4 15 -3 11 2 -3 5 -1 12 4 16 6 3 8 12 5 20
-3 8 4 18 18 25 22 11 22 11 3 -5 -16 -13 -17 -17 -6 -24 11 -7 11 -9 0 -13
-16 -5 -20 -58 -5 -58 6 -1 0 -7 -14 -15 -14 -8 -20 -14 -14 -15 17 0 25 -27
8 -27 -7 0 -10 5 -7 10 4 6 1 7 -6 3 -7 -5 -10 -10 -7 -14 3 -3 -2 -11 -12
-19 -15 -11 -13 -12 12 -3 24 9 32 8 43 -5 7 -8 8 -10 1 -5 -14 12 -28 13 -27
3 3 -20 -2 -34 -11 -28 -5 3 -10 -1 -10 -10 0 -10 5 -13 12 -9 7 5 8 3 3 -6
-6 -10 -4 -12 9 -7 11 4 15 3 11 -4 -4 -6 -13 -8 -21 -5 -8 3 -14 1 -14 -3 0
-5 5 -11 12 -13 17 -6 18 -36 2 -42 -12 -4 -12 -2 -4 14 7 14 7 20 0 20 -5 0
-10 -7 -10 -16 0 -9 -5 -12 -12 -8 -9 5 -9 2 1 -9 11 -14 11 -17 0 -18 -8 0
-4 -5 8 -11 12 -6 24 -17 27 -25 4 -8 1 -11 -5 -7 -8 4 -9 -1 -4 -15 3 -12 2
-21 -3 -21 -6 0 -9 11 -8 25 2 13 -1 22 -5 19 -5 -3 -9 0 -9 7 0 7 -3 10 -6 7
-3 -4 0 -16 6 -29 11 -20 10 -21 -6 -15 -18 6 -18 5 -1 -8 19 -15 24 -31 5
-20 -6 4 -8 3 -4 -4 3 -5 3 -12 -1 -15 -5 -2 -2 -2 6 0 9 2 12 -3 8 -16 -5
-22 15 -46 28 -33 5 4 4 0 -1 -8 -5 -8 -9 -22 -10 -30 0 -8 -4 -23 -8 -32 -4
-9 -4 -23 0 -30 6 -11 5 -11 -8 0 -13 10 -18 10 -24 1 -4 -7 -3 -9 4 -5 7 4
10 -1 9 -14 -1 -11 -5 -20 -10 -20 -4 0 -5 -5 -1 -11 4 -8 9 -7 15 2 4 7 6 16
4 19 -2 4 2 7 10 7 18 0 20 -14 3 -20 -10 -3 -10 -7 0 -20 11 -13 10 -16 -8
-22 -11 -3 -18 -10 -15 -15 3 -5 -3 -13 -12 -19 -10 -6 -13 -11 -6 -11 7 0 22
10 34 23 l21 22 -11 -22 c-6 -12 -16 -25 -21 -28 -6 -3 -10 -11 -10 -17 0 -6
10 -3 23 8 22 19 22 19 5 -2 -14 -16 -15 -23 -6 -32 7 -7 8 -12 4 -12 -5 0 -3
-7 4 -16 8 -8 9 -14 4 -13 -21 4 -26 -2 -14 -16 7 -8 17 -12 23 -8 6 4 7 1 2
-6 -5 -9 -10 -10 -18 -2 -12 12 -38 15 -36 4 4 -22 -2 -33 -13 -27 -10 6 -10
4 0 -8 8 -10 9 -18 3 -22 -11 -7 -4 -36 9 -36 5 0 7 9 5 20 -2 11 1 20 7 20 5
0 8 -7 4 -15 -3 -8 2 -19 11 -24 14 -7 13 -9 -5 -15 -12 -4 -27 -4 -33 0 -7 4
-9 3 -5 -4 3 -5 0 -13 -6 -16 -7 -2 -3 -4 9 -3 12 1 22 -2 22 -7 -1 -5 5 -13
13 -17 11 -7 10 -9 -1 -9 -11 0 -9 -4 5 -15 16 -13 17 -14 1 -9 -19 7 -21 -15
-2 -28 7 -5 6 -8 -1 -8 -12 0 -12 -59 0 -79 5 -8 -2 -6 -19 5 -27 18 -64 29
-50 16 4 -4 12 -7 18 -7 5 0 12 -6 15 -12 2 -7 -1 -13 -7 -13 -6 0 -11 -5 -11
-11 0 -8 4 -8 14 1 11 9 19 9 33 0 14 -9 14 -10 2 -7 -24 8 -40 -12 -28 -34 7
-13 5 -20 -8 -28 -14 -8 -15 -10 -3 -11 13 0 13 -1 0 -10 -8 -5 -10 -10 -5
-10 6 0 11 -9 12 -20 1 -11 -2 -18 -7 -15 -5 3 -11 2 -14 -3 -2 -4 6 -8 20 -8
27 0 30 6 12 26 -7 8 -3 6 10 -5 16 -13 19 -21 10 -26 -7 -4 -16 -5 -20 -3 -4
3 -8 0 -8 -6 0 -6 -5 -8 -11 -4 -8 5 -8 1 0 -14 6 -12 16 -24 21 -27 6 -3 10
-12 10 -18 0 -7 -4 -6 -10 3 -5 8 -12 12 -15 8 -3 -3 0 -12 8 -19 15 -15 19
-52 5 -43 -4 3 -8 -4 -8 -16 0 -12 -4 -19 -9 -16 -12 8 -7 -42 6 -55 5 -5 9
-1 10 11 1 11 -2 18 -7 15 -6 -3 -7 1 -4 9 8 20 26 10 22 -12 -1 -10 1 -22 5
-29 5 -8 1 -11 -12 -8 -11 2 -27 -5 -37 -16 -10 -11 -14 -19 -9 -17 6 2 20 -7
33 -20 12 -12 17 -22 12 -22 -5 0 -10 -9 -10 -20 0 -11 5 -20 11 -20 6 0 1 -9
-12 -20 -26 -21 -20 -26 11 -10 13 7 21 7 26 -2 5 -7 3 -8 -6 -3 -10 6 -12 4
-7 -7 4 -12 0 -15 -18 -13 -13 1 -26 -4 -29 -11 -3 -9 0 -11 11 -7 12 5 10 -2
-7 -25 -22 -30 -22 -33 -7 -50 9 -10 17 -24 17 -31 0 -7 4 -10 8 -7 5 3 9 -1
9 -8 0 -9 -9 -13 -25 -10 -16 3 -23 1 -19 -8 2 -7 12 -11 22 -10 16 3 17 1 6
-11 -7 -9 -21 -14 -32 -12 -11 2 -17 0 -14 -5 3 -5 14 -7 24 -5 11 2 22 -3 25
-11 4 -12 0 -14 -17 -10 -12 3 -16 3 -9 0 6 -3 12 -10 12 -15 0 -6 -4 -8 -8
-5 -5 3 -9 -1 -9 -9 0 -8 4 -12 9 -9 4 3 8 -2 8 -11 0 -9 -4 -13 -10 -10 -5 3
-10 1 -10 -4 0 -15 15 -14 29 2 7 10 7 17 0 24 -8 8 -7 13 1 18 6 4 17 2 23
-4 9 -9 7 -10 -8 -5 -17 7 -18 5 -8 -7 7 -9 9 -20 3 -29 -6 -10 -3 -21 8 -35
17 -20 17 -20 -4 -2 -23 19 -39 23 -29 7 3 -5 2 -10 -2 -10 -5 0 -9 -10 -10
-22 l-2 -23 13 23 c6 12 15 19 19 16 10 -10 9 -26 -2 -20 -5 3 -11 -7 -13 -24
-3 -19 -1 -27 6 -23 6 4 5 -1 -3 -10 -17 -22 -30 -13 -25 16 4 20 4 20 -4 2
-11 -24 7 -62 20 -42 5 8 8 7 8 -5 0 -9 -5 -18 -11 -20 -6 -2 -2 -14 10 -30
13 -16 17 -29 11 -33 -5 -3 -10 -11 -10 -16 0 -6 4 -8 8 -5 4 2 8 -3 8 -13 0
-13 -6 -17 -19 -13 -14 4 -16 7 -5 13 7 5 8 9 2 9 -23 0 -24 -15 -2 -32 19
-15 20 -20 9 -27 -8 -5 -21 -7 -30 -4 -11 3 -11 1 2 -7 10 -6 25 -9 33 -6 9 4
12 2 8 -5 -3 -6 -18 -8 -33 -5 -14 4 -21 3 -16 -1 6 -4 11 -28 13 -53 2 -25
11 -54 20 -64 17 -19 16 -19 -8 -3 -13 9 -31 17 -40 16 -13 0 -13 -1 0 -6 8
-3 23 -12 32 -21 17 -14 17 -16 0 -44 -16 -28 -16 -30 2 -44 19 -13 19 -14 1
-14 -17 0 -17 -1 1 -22 12 -14 13 -18 3 -10 -9 6 -18 9 -21 7 -3 -3 -5 2 -5
12 0 34 -3 43 -14 43 -6 0 -7 -5 -2 -12 12 -21 12 -38 0 -38 -7 -1 -1 -7 13
-15 l25 -15 -28 4 c-16 3 -25 1 -22 -5 4 -5 11 -7 16 -4 5 4 10 -3 10 -14 3
-38 4 -42 19 -52 13 -9 12 -10 -2 -5 -20 6 -25 -10 -5 -17 6 -3 2 -4 -10 -4
-18 1 -20 4 -11 22 11 20 11 20 -9 0 -20 -20 -20 -20 1 -32 11 -6 24 -9 28 -7
3 2 10 0 13 -6 4 -6 1 -9 -7 -8 -16 4 -18 -31 -4 -52 10 -13 9 -13 -6 -2 -9 8
-22 11 -28 7 -7 -4 -4 8 5 26 10 19 14 31 10 27 -5 -4 -15 -2 -24 5 -14 10
-14 10 -3 -5 10 -12 11 -22 3 -37 -15 -27 -14 -32 5 -29 11 2 18 -5 20 -19 2
-13 0 -23 -5 -23 -6 0 -8 9 -6 20 2 12 0 18 -6 15 -5 -4 -7 -10 -4 -15 3 -5 1
-11 -4 -15 -5 -3 -8 -14 -6 -25 2 -11 -2 -20 -8 -20 -8 0 -8 -3 1 -9 8 -4 13
-11 13 -15 -5 -34 1 -43 24 -41 14 2 23 -1 20 -5 -3 -5 -12 -7 -20 -4 -8 4
-18 -1 -21 -10 -3 -9 -10 -13 -15 -10 -5 3 -6 -3 -2 -12 4 -11 3 -15 -4 -11
-15 9 -10 -20 5 -35 8 -8 12 -9 12 -1 0 6 -5 13 -12 15 -9 3 -9 6 0 12 7 4 12
2 12 -4 0 -6 4 -9 8 -6 4 2 8 -4 8 -14 0 -10 -4 -16 -8 -14 -4 3 -12 -6 -19
-18 -12 -22 -11 -22 6 -8 17 14 18 13 12 -2 -4 -11 0 -22 11 -28 15 -10 15
-11 -3 -5 -36 12 -39 10 -41 -22 -1 -18 2 -33 7 -33 5 0 9 -5 9 -11 0 -5 -6
-7 -12 -3 -10 6 -10 5 -1 -7 10 -12 10 -18 1 -27 -7 -7 -8 -12 -2 -12 5 0 2
-5 -6 -10 -11 -7 -11 -10 -2 -10 7 0 10 -4 7 -10 -3 -5 -1 -10 4 -10 6 0 11
-9 11 -21 0 -13 -4 -18 -12 -13 -10 6 -10 5 -1 -7 8 -9 9 -20 3 -29 -12 -19
-12 -30 -2 -30 5 0 9 7 10 15 1 8 3 22 4 30 2 23 17 18 15 -5 -1 -11 -4 -20
-7 -20 -4 0 -7 -7 -7 -15 0 -8 5 -15 11 -15 6 0 6 -4 -2 -8 -22 -15 -2 -79 21
-66 7 4 8 3 4 -2 -5 -5 -14 -9 -20 -9 -7 0 -12 -11 -12 -25 -1 -14 -4 -30 -8
-37 -4 -7 0 -17 10 -23 16 -10 15 -10 -4 -5 -14 4 -23 2 -23 -4 0 -6 6 -11 13
-11 7 0 13 -10 14 -22 1 -13 4 -33 7 -46 3 -13 1 -20 -5 -16 -9 5 -9 -2 5 -64
3 -12 1 -20 -4 -17 -5 3 -7 -7 -5 -22 2 -16 4 -28 5 -28 1 0 3 -20 5 -45 1
-25 0 -40 -2 -33 -2 7 -12 9 -21 6 -15 -4 -15 -3 -2 7 13 10 12 11 -3 6 -10
-3 -21 -6 -23 -6 -2 0 -4 -5 -4 -11 0 -5 4 -8 9 -4 5 3 16 -1 24 -9 8 -8 18
-12 22 -8 4 4 3 -3 -4 -15 -8 -16 -8 -23 2 -26 9 -4 9 -6 0 -6 -7 -1 -13 -6
-13 -12 0 -5 4 -7 10 -4 6 3 7 -1 4 -9 -3 -9 -14 -16 -23 -16 -13 0 -14 -2 -1
-9 8 -6 18 -7 24 -4 5 3 6 1 3 -5 -4 -5 -15 -9 -25 -7 -9 1 -11 0 -4 -2 6 -3
12 -11 12 -20 0 -13 -2 -14 -17 -2 -16 13 -17 12 -5 -3 8 -9 19 -15 26 -12 7
3 19 -3 26 -13 12 -15 12 -16 0 -5 -22 19 -32 14 -20 -9 7 -11 9 -23 6 -27 -3
-3 -6 0 -6 7 0 7 -4 9 -10 6 -5 -3 -8 0 -5 7 3 7 -5 19 -17 27 -22 13 -23 13
-5 -6 9 -11 14 -23 10 -27 -4 -4 -1 -11 7 -16 10 -6 11 -14 4 -31 -9 -19 -6
-27 15 -47 14 -14 18 -19 8 -12 -16 12 -18 11 -14 -16 3 -19 10 -29 20 -28 9
1 14 -3 11 -8 -3 -5 -12 -7 -20 -4 -15 6 -44 -19 -44 -37 0 -7 4 -6 10 3 5 8
18 16 29 16 11 1 18 -2 15 -7 -2 -4 -12 -5 -22 -2 -15 6 -15 5 -3 -11 8 -9 20
-15 28 -12 21 8 15 0 -11 -18 -24 -15 -25 -15 -21 6 3 11 1 18 -2 14 -13 -12
-12 -39 1 -52 8 -7 16 -11 18 -9 3 3 5 -2 5 -10 0 -11 -4 -12 -11 -5 -13 13
-26 13 -26 -1 0 -5 4 -7 10 -4 5 3 11 1 11 -4 1 -6 2 -15 3 -21 0 -5 10 -16
21 -25 20 -16 19 -16 -2 -5 -17 8 -23 8 -23 0 0 -6 -4 -8 -10 -5 -5 3 -10 1
-10 -4 0 -6 5 -11 11 -11 5 0 7 -5 4 -10 -4 -6 -11 -7 -17 -4 -7 5 -8 2 -2 -7
5 -8 9 -17 9 -21 0 -3 4 -10 9 -15 6 -5 6 -2 1 7 -5 9 -4 12 1 7 10 -10 6 -78
-7 -93 -5 -7 -3 -11 6 -11 8 0 12 4 9 9 -3 4 0 8 6 8 7 0 10 -7 6 -15 -3 -8 2
-19 12 -24 23 -14 6 -14 -20 0 -15 8 -19 8 -14 0 4 -6 1 -11 -6 -11 -10 0 -9
-3 2 -9 8 -6 18 -7 22 -5 4 3 8 0 8 -7 0 -8 5 -7 18 2 15 12 16 12 5 -2 -7 -9
-9 -20 -5 -25 4 -4 -1 -2 -10 5 -10 7 -18 10 -18 6 0 -4 -6 -2 -13 4 -10 8
-14 7 -14 -4 0 -8 3 -12 7 -10 3 2 19 -5 36 -17 16 -11 22 -18 13 -15 -9 3
-21 -3 -27 -14 -14 -22 -3 -25 18 -7 9 8 8 5 -1 -7 -9 -11 -14 -26 -11 -34 3
-10 0 -11 -9 -5 -12 6 -12 5 -1 -8 11 -14 10 -18 -5 -27 -11 -6 -13 -11 -5
-11 7 0 10 -5 6 -12 -4 -6 -3 -8 4 -4 6 3 14 1 17 -4 5 -8 14 -5 27 7 20 18
21 18 7 -4 -9 -15 -21 -21 -35 -19 -13 3 -21 -1 -21 -10 0 -7 4 -11 9 -8 4 3
8 0 8 -5 0 -6 5 -11 11 -11 5 0 7 5 3 12 -4 7 -3 8 5 4 8 -6 9 -12 2 -20 -6
-7 -8 -16 -4 -19 3 -4 -2 -7 -13 -8 -16 0 -14 -2 6 -11 14 -6 32 -10 40 -9 13
2 13 1 0 -8 -14 -10 -7 -15 13 -12 5 1 6 -3 2 -9 -4 -6 -16 -3 -32 7 -29 19
-56 26 -47 12 3 -5 9 -7 13 -5 4 3 21 -9 37 -26 16 -17 23 -28 17 -24 -8 4
-13 2 -14 -6 -1 -7 -2 -25 -3 -39 -2 -16 2 -26 11 -26 7 0 13 4 13 9 0 4 -5 8
-11 8 -8 0 -7 6 2 17 12 14 12 16 0 8 -10 -5 -12 -4 -7 3 13 21 24 13 22 -18
-1 -16 -10 -37 -21 -45 -11 -9 -14 -14 -8 -10 7 3 21 1 30 -4 16 -9 15 -11 -7
-11 -14 -1 -19 -4 -12 -7 6 -2 9 -9 6 -15 -4 -6 2 -6 14 1 30 16 34 14 15 -7
-10 -11 -21 -17 -25 -15 -4 2 -10 -2 -14 -8 -4 -8 -3 -9 4 -5 13 8 42 -43 35
-61 -3 -7 0 -13 7 -13 6 0 8 -5 4 -11 -5 -8 -1 -8 14 0 31 16 38 13 16 -6 -19
-18 -30 -45 -17 -41 5 1 19 -2 32 -6 l23 -8 -28 -20 c-16 -11 -21 -17 -11 -14
14 4 17 2 15 -12 -2 -9 -11 -16 -19 -14 -11 3 -12 1 -1 -10 11 -11 14 -10 22
2 5 8 12 11 16 7 4 -3 1 -14 -7 -23 -12 -15 -11 -16 9 -10 26 9 29 -1 5 -20
-17 -13 -17 -14 2 -7 18 6 19 5 5 -12 -9 -11 -10 -16 -2 -11 6 4 12 2 12 -3 0
-6 5 -11 11 -11 8 0 8 5 -1 15 -7 9 -8 15 -2 15 12 0 21 -21 15 -37 -4 -10
-10 -10 -26 -2 -21 10 -21 10 1 -8 18 -15 20 -21 10 -32 -9 -9 -9 -12 -1 -7
14 8 36 -27 25 -39 -4 -5 -2 -5 5 -1 7 4 10 13 6 21 -3 8 0 15 5 15 6 0 9 -14
7 -30 -2 -17 1 -30 6 -30 6 0 8 4 5 8 -2 4 0 14 6 22 8 13 9 12 5 -2 -3 -9 1
-22 8 -28 8 -7 12 -16 9 -22 -3 -5 -1 -15 6 -23 7 -8 7 -15 1 -19 -14 -9 -3
-33 18 -39 13 -3 18 -12 16 -29 -2 -16 2 -25 11 -25 10 0 11 4 2 14 -8 11 -7
12 5 7 17 -6 18 -37 2 -51 -4 -5 -5 -2 -1 5 4 6 3 12 -2 12 -6 0 -12 -6 -15
-14 -6 -15 8 -15 48 0 16 6 15 3 -5 -15 -22 -19 -23 -21 -5 -19 11 2 23 8 28
13 10 13 4 -26 -7 -43 -7 -11 -4 -12 12 -3 15 8 23 8 28 -1 4 -6 3 -8 -3 -5
-6 4 -17 -1 -24 -10 -12 -15 -12 -16 3 -10 10 3 20 2 23 -4 4 -5 10 -7 13 -5
4 2 8 -9 9 -26 0 -20 -2 -26 -7 -17 -5 7 -6 17 -3 23 4 5 1 6 -7 1 -9 -6 -11
-4 -5 5 6 9 4 11 -4 5 -9 -5 -10 -10 -2 -18 18 -18 12 -31 -7 -16 -15 13 -16
12 -3 -4 8 -9 16 -15 19 -12 3 3 12 -1 20 -8 9 -6 13 -7 10 -2 -4 6 -2 17 4
25 8 12 9 12 4 -2 -3 -10 2 -22 12 -27 11 -7 12 -11 4 -11 -7 0 -10 -5 -6 -12
4 -7 3 -8 -5 -4 -6 4 -8 13 -5 19 4 7 3 8 -1 4 -5 -4 -10 -15 -11 -23 -1 -9 0
-13 3 -10 7 7 63 -22 63 -34 0 -4 8 -10 18 -12 14 -3 13 -5 -6 -10 -14 -4 -20
-2 -15 4 3 7 1 8 -5 4 -8 -4 -10 -2 -6 7 6 17 -22 31 -31 16 -4 -5 -1 -8 7 -7
7 2 12 -2 11 -9 -1 -6 4 -16 12 -23 7 -6 11 -19 8 -28 -4 -13 -3 -14 5 -4 7
11 10 10 16 -3 3 -10 1 -25 -6 -34 -11 -14 -11 -14 3 -4 19 15 30 8 22 -15 -4
-15 -3 -15 6 -2 7 10 11 11 11 3 0 -7 5 -13 11 -13 5 0 7 5 3 12 -4 7 -3 8 4
4 7 -4 17 -16 23 -27 9 -19 9 -19 -10 -10 -26 14 -28 14 -35 -5 -5 -13 -3 -14
6 -6 9 7 18 7 31 -2 19 -15 24 -31 5 -20 -10 6 -10 5 -1 -8 7 -8 9 -18 5 -22
-4 -4 0 -6 8 -4 10 2 14 -3 12 -14 -2 -10 2 -18 8 -18 6 0 8 -5 4 -11 -4 -8
-1 -8 13 -1 21 12 48 1 48 -20 1 -7 6 -12 11 -11 6 1 11 -4 11 -12 0 -8 -4
-12 -8 -9 -4 2 -9 1 -12 -3 -2 -5 -2 -3 -1 4 2 7 -1 15 -7 18 -5 4 -8 -6 -7
-24 1 -16 6 -27 10 -25 8 5 12 -9 9 -36 -2 -13 0 -13 8 -1 6 10 6 21 0 33 -6
12 -6 18 1 18 5 0 10 -7 10 -15 0 -9 6 -12 18 -9 14 5 15 4 2 -5 -14 -10 -7
-16 15 -11 5 1 7 -2 3 -6 -4 -4 0 -13 10 -21 16 -12 15 -13 -3 -6 -18 6 -18 5
-6 -10 7 -9 17 -15 21 -12 4 2 6 -11 4 -30 -1 -19 2 -35 7 -35 6 0 7 -6 3 -12
-4 -7 -4 -10 1 -6 4 4 15 2 23 -5 11 -8 14 -8 9 0 -4 6 -3 15 3 18 6 4 9 1 8
-7 -2 -7 3 -12 10 -10 6 1 12 -2 12 -8 0 -5 -13 -8 -30 -6 -16 2 -27 -1 -24
-6 3 -5 12 -7 20 -4 9 3 14 -2 14 -14 0 -11 4 -20 10 -20 5 0 7 8 4 18 -4 11
-3 13 3 5 5 -6 8 -27 7 -45 -1 -28 2 -34 20 -35 11 -1 16 1 10 3 -7 3 -10 15
-8 27 4 21 4 21 -5 2 -8 -17 -10 -17 -10 -3 -1 21 18 34 24 16 2 -7 7 -26 9
-41 4 -24 2 -28 -12 -22 -14 5 -15 4 -4 -7 11 -11 16 -9 30 10 17 21 18 21 18
3 0 -11 -3 -18 -7 -15 -4 2 -9 -10 -11 -26 -4 -23 -2 -27 9 -19 7 6 11 15 8
19 -3 4 2 11 10 14 13 4 13 2 5 -14 -16 -30 -12 -35 12 -14 l22 19 -16 -24
c-19 -27 -14 -51 11 -51 14 1 14 2 -2 14 -10 8 -14 17 -9 20 8 5 20 -13 24
-34 1 -3 8 -11 17 -18 14 -11 13 -11 -6 -2 -14 6 -23 7 -23 1 0 -5 9 -13 20
-16 11 -3 21 -11 21 -16 3 -18 5 -24 17 -45 6 -12 8 -25 4 -29 -4 -5 -1 -5 6
-1 15 9 16 -6 1 -21 -7 -7 -5 -10 8 -10 40 0 44 -3 38 -24 -6 -19 -5 -20 8 -8
8 8 12 19 9 24 -3 6 2 4 11 -4 18 -14 23 -26 8 -17 -16 10 -20 -21 -6 -41 8
-10 15 -13 15 -7 0 5 -5 15 -10 22 -6 6 -7 10 -4 7 4 -3 14 1 23 7 13 10 14
10 5 -1 -9 -10 -5 -19 19 -42 16 -16 27 -29 23 -29 -4 0 -2 -9 4 -19 7 -14 7
-22 0 -26 -8 -5 -8 -11 -1 -19 6 -7 7 -17 3 -21 -4 -5 -1 -5 6 -1 6 4 13 2 13
-3 1 -6 2 -15 3 -21 0 -5 4 -10 9 -10 4 0 10 0 13 0 3 0 -4 13 -15 28 -14 20
-17 32 -9 43 8 11 9 11 4 -3 -3 -10 -1 -18 4 -18 6 0 10 -7 10 -16 0 -9 5 -12
12 -8 7 4 8 3 4 -4 -4 -7 -2 -12 5 -12 7 0 5 -8 -7 -22 -10 -12 -13 -18 -6
-14 6 4 12 2 12 -3 0 -6 5 -11 11 -11 8 0 8 5 -1 15 -7 8 -9 15 -4 15 15 -1
45 -50 38 -61 -4 -7 -1 -10 7 -7 8 3 13 11 11 17 -1 7 2 10 8 6 6 -3 8 -10 5
-15 -3 -5 -1 -11 5 -15 6 -4 8 -11 5 -16 -4 -5 -1 -9 4 -9 6 0 11 5 11 12 0 6
3 9 6 6 3 -4 -2 -19 -12 -35 -10 -15 -14 -25 -9 -21 12 11 35 -11 28 -28 -3
-8 0 -14 7 -14 6 0 8 4 5 10 -3 6 4 9 19 8 13 -1 22 -6 20 -10 -3 -5 -10 -6
-15 -3 -5 3 -6 -1 -3 -9 3 -9 10 -13 15 -10 5 3 7 -12 4 -33 -3 -24 -1 -33 4
-24 6 9 16 11 27 6 18 -7 18 -7 0 -14 -19 -7 -19 -8 1 -13 11 -3 27 -2 35 3
10 5 14 2 15 -14 2 -15 0 -18 -6 -8 -5 8 -11 9 -15 3 -3 -5 1 -12 9 -16 8 -3
17 -1 20 4 4 6 14 9 23 9 15 -1 15 -2 0 -6 -20 -5 -23 -18 -8 -28 15 -9 12
-27 -2 -19 -8 4 -10 3 -5 -2 5 -5 14 -9 20 -9 7 -1 11 -7 9 -14 -1 -7 2 -10 7
-7 9 6 38 -22 34 -33 -2 -3 5 -6 15 -6 12 0 16 -7 15 -23 -3 -19 -1 -21 12
-10 12 11 10 17 -15 39 -28 24 -30 39 -6 39 7 0 7 -3 -1 -8 -8 -5 -3 -14 17
-27 33 -22 62 -73 52 -90 -3 -5 3 -3 13 5 17 14 18 13 12 -2 -4 -11 -2 -17 6
-15 7 1 11 -6 9 -15 -1 -9 1 -19 6 -22 12 -7 8 25 -7 52 -7 13 -10 26 -7 30 3
3 6 0 6 -7 0 -7 4 -10 9 -7 5 3 8 -2 7 -12 0 -9 5 -16 12 -14 8 1 11 -6 8 -21
-3 -16 1 -24 10 -24 9 0 11 4 4 12 -7 9 -5 17 7 26 16 13 17 12 4 -3 -11 -15
-11 -19 3 -24 12 -5 14 -10 6 -19 -8 -10 -8 -15 1 -21 7 -4 9 -3 6 2 -3 6 2
15 12 21 14 9 18 8 18 -3 0 -7 -5 -11 -11 -8 -6 3 -3 -1 7 -9 9 -8 17 -19 17
-25 0 -14 28 -23 35 -12 4 6 3 16 0 23 -4 6 -1 5 7 -4 7 -9 20 -14 28 -12 13
4 13 3 0 -6 -8 -5 -19 -7 -25 -3 -5 3 -4 -2 3 -11 8 -9 10 -22 6 -28 -5 -8 -3
-9 5 -5 7 5 10 14 7 22 -3 8 -1 14 4 14 10 0 14 -15 10 -35 -1 -5 2 -6 7 -2 4
5 8 14 8 19 0 6 7 13 15 15 9 3 11 1 5 -4 -20 -16 -13 -44 16 -59 16 -8 29
-12 29 -10 0 3 -11 11 -25 19 -23 12 -24 15 -11 32 14 20 15 20 13 0 -2 -16 4
-20 30 -19 18 1 30 -3 27 -7 -3 -5 2 -9 10 -9 9 0 16 -5 16 -11 0 -5 -4 -8 -9
-5 -5 3 -14 -1 -20 -8 -9 -11 -9 -14 1 -12 7 1 18 5 25 9 14 9 36 -26 25 -38
-4 -5 -1 -5 6 -1 7 5 11 11 8 14 -3 3 -1 11 6 19 8 10 8 13 -3 10 -8 -2 -11
-2 -6 0 4 3 5 8 3 12 -3 4 1 8 9 8 8 0 12 -3 10 -7 -3 -4 5 -16 17 -26 21 -19
21 -19 8 6 -12 22 -11 24 2 13 8 -7 19 -9 23 -5 5 4 6 3 3 -3 -3 -5 1 -17 10
-25 14 -13 15 -12 9 3 -3 9 -3 17 1 18 4 0 15 2 25 4 9 2 16 0 14 -3 -2 -4 4
-15 14 -24 15 -14 18 -14 23 -2 3 8 1 12 -4 9 -6 -4 -7 1 -3 11 6 15 7 15 15
-1 5 -9 7 -22 5 -29 -3 -7 1 -13 9 -13 8 0 12 6 9 14 -3 7 -8 20 -11 28 -3 8
-1 15 6 15 6 0 9 -4 6 -9 -3 -5 16 -25 42 -46 34 -27 39 -29 15 -7 -17 17 -28
34 -25 38 4 4 2 4 -4 1 -6 -3 -11 0 -11 7 0 8 6 12 14 9 7 -3 13 -9 13 -13 0
-5 10 -6 23 -4 12 3 28 6 35 6 7 1 10 8 8 15 -3 8 -1 11 5 8 5 -4 7 -15 4 -25
-3 -10 0 -22 6 -26 7 -4 10 -3 6 2 -6 11 13 38 30 41 6 1 9 -6 6 -18 -5 -16
-8 -18 -14 -7 -7 10 -9 9 -9 -3 0 -17 28 -34 38 -24 3 3 0 5 -6 5 -6 0 -9 7
-5 16 5 14 8 12 19 -7 8 -14 13 -18 14 -10 0 11 4 9 14 -5 10 -13 14 -15 13
-4 -1 8 3 16 8 17 6 2 10 -4 10 -11 0 -8 4 -18 9 -23 5 -4 6 -3 2 5 -9 15 8
16 36 1 27 -14 79 -23 58 -10 -8 5 -18 7 -22 5 -4 -3 -8 -1 -8 4 0 6 11 9 24
8 13 0 24 -5 23 -11 -1 -5 4 -9 11 -7 8 1 11 -2 7 -8 -4 -6 -1 -11 6 -9 27 3
40 -1 34 -11 -3 -5 -1 -10 4 -10 6 0 11 5 11 10 0 6 10 2 22 -10 12 -11 26
-20 30 -20 5 0 6 -5 2 -11 -3 -6 1 -10 12 -9 38 4 45 1 35 -18 -8 -14 -6 -18
10 -19 10 -1 19 3 19 8 0 6 -4 7 -10 4 -6 -3 -7 1 -3 10 5 13 7 14 14 3 7 -10
9 -10 9 2 1 9 6 5 15 -10 8 -14 14 -21 15 -16 0 6 5 5 11 -1 6 -6 18 -9 25 -6
8 3 14 0 14 -7 0 -10 3 -10 15 0 12 10 16 9 21 -4 3 -9 11 -13 18 -9 6 4 4 -1
-4 -12 -14 -16 -13 -17 8 -11 14 5 22 3 22 -4 0 -6 -4 -9 -8 -6 -4 2 -14 0
-22 -6 -13 -8 -12 -9 2 -5 9 3 24 -3 34 -14 l19 -21 17 22 c20 24 24 19 8 -10
-7 -13 -7 -21 2 -26 6 -4 8 -3 5 3 -4 6 1 17 10 24 14 12 16 12 11 -2 -3 -9
-3 -21 2 -28 5 -10 9 -9 13 4 4 9 3 13 -3 10 -6 -3 -7 1 -3 10 4 13 8 14 14 4
4 -7 5 -17 3 -21 -3 -4 -3 -8 -1 -8 3 0 21 -7 42 -16 23 -9 34 -11 30 -4 -5 9
-2 9 12 2 10 -6 25 -7 34 -2 11 6 15 4 15 -9 0 -10 -6 -18 -13 -18 -7 0 -10 4
-8 8 6 9 -22 6 -31 -3 -3 -4 -12 -4 -19 -2 -7 3 -15 1 -19 -4 -6 -10 24 -9 42
2 7 4 12 2 12 -4 0 -7 7 -10 15 -7 8 4 17 2 20 -3 6 -9 31 -8 41 3 4 3 14 2
24 -3 10 -5 20 -6 24 -2 4 3 10 2 14 -4 4 -6 30 -23 57 -36 37 -19 57 -23 78
-17 15 4 27 4 27 1 0 -4 5 0 10 8 5 8 10 10 10 4 0 -5 -7 -19 -16 -30 -15 -19
-16 -19 -9 1 5 15 3 17 -6 8 -6 -6 -8 -16 -4 -23 5 -8 15 -4 33 12 14 13 22
17 18 10 -6 -9 -1 -11 18 -8 19 3 29 -1 36 -15 7 -13 7 -19 0 -19 -5 0 -10 8
-10 18 0 14 -2 15 -10 2 -5 -8 -10 -10 -10 -5 0 18 -37 12 -49 -7 -7 -11 -7
-18 -1 -18 5 0 10 5 10 10 0 6 9 10 21 10 11 0 17 -5 14 -10 -4 -6 -11 -7 -17
-4 -7 5 -8 2 -3 -5 5 -9 10 -10 18 -2 12 12 31 15 24 4 -3 -5 214 -8 481 -8
386 -1 489 2 495 12 9 15 33 17 41 4 4 -5 -3 -7 -14 -4 -11 3 -20 1 -20 -5 0
-9 58 -7 68 3 3 3 11 0 18 -6 8 -6 14 -6 18 0 4 5 2 12 -4 16 -6 4 -7 11 -4
17 4 7 2 8 -5 4 -6 -4 -9 -11 -6 -16 3 -4 -3 -7 -12 -5 -10 2 -21 4 -25 4 -5
1 -8 6 -8 12 0 8 4 9 13 0 14 -11 27 -5 27 11 0 5 -4 7 -9 3 -5 -3 -12 -1 -16
4 -6 10 27 7 45 -4 6 -3 10 -1 10 4 0 6 7 11 15 11 9 0 12 6 9 17 -4 11 -3 14
3 7 4 -6 16 -10 26 -8 9 1 15 -1 12 -6 -3 -4 1 -10 9 -13 10 -4 12 1 9 16 -4
22 -4 22 11 3 10 -13 16 -15 16 -7 0 10 3 11 14 2 10 -9 15 -8 19 3 4 9 2 18
-4 21 -5 4 2 16 16 27 14 11 22 25 18 31 -3 7 3 4 14 -6 15 -13 23 -15 28 -7
5 8 12 5 22 -7 13 -16 13 -16 2 6 -10 20 -9 23 4 18 16 -6 18 16 2 30 -4 4 -5
3 -1 -4 3 -7 -2 -14 -14 -18 -11 -3 -20 -11 -20 -17 0 -6 -2 -9 -5 -6 -8 8 6
39 15 33 4 -3 10 2 14 10 3 9 12 12 22 8 10 -4 15 -2 12 3 -4 5 0 18 8 29 8
10 14 14 14 9 0 -6 -3 -14 -7 -17 -3 -4 -8 -19 -9 -34 -2 -23 -1 -25 7 -10 6
9 7 22 4 27 -3 6 1 13 9 16 9 3 14 10 11 14 -3 4 2 11 11 14 10 4 14 14 11 25
-3 14 -1 18 9 14 8 -3 11 -10 7 -17 -3 -6 -2 -7 3 -3 5 5 9 12 10 15 0 4 4 15
9 25 6 15 10 16 17 5 7 -10 8 -9 6 4 -2 9 5 23 15 30 18 13 17 14 -2 14 -11 0
-17 -5 -14 -10 4 -5 1 -6 -7 -1 -8 5 -11 4 -7 -1 3 -5 -3 -20 -12 -33 -14 -18
-20 -21 -26 -11 -5 9 -4 11 3 6 7 -4 12 -1 12 8 0 9 5 16 11 16 5 0 8 4 4 9
-3 5 -1 12 5 16 6 4 7 12 3 18 -4 7 1 5 12 -3 17 -14 17 -13 11 10 -6 20 -5
22 4 8 6 -10 17 -15 26 -11 12 5 12 7 -3 18 -14 10 -15 16 -5 27 6 8 9 17 6
21 -3 3 5 3 18 1 22 -5 22 -5 4 10 -11 9 -14 16 -7 16 7 0 9 5 5 11 -5 8 -1 8
14 0 15 -8 23 -8 28 1 4 7 3 8 -4 4 -8 -5 -12 0 -12 13 0 12 5 21 11 21 5 0 7
-4 4 -10 -4 -6 1 -7 11 -3 11 4 13 8 6 11 -7 2 -9 9 -6 14 5 7 2 8 -6 3 -8 -5
-11 -4 -6 3 3 6 2 13 -4 17 -5 3 -10 11 -10 18 0 6 7 2 16 -9 11 -13 17 -15
20 -6 3 6 9 10 13 8 4 -3 8 1 8 9 0 8 -4 12 -9 9 -4 -3 -8 -1 -8 4 0 17 13 22
29 9 14 -11 14 -10 2 5 -12 17 -9 23 12 19 5 -1 6 3 2 9 -3 5 0 10 7 11 7 0 3
5 -9 11 -13 6 -23 15 -23 20 0 5 10 3 23 -3 l22 -12 -23 25 c-16 18 -18 25 -8
25 8 0 13 -4 11 -8 -6 -8 25 -22 33 -14 3 3 0 5 -6 5 -7 0 -12 15 -12 35 0 34
14 48 23 23 2 -7 2 0 -1 17 -2 16 -12 36 -21 43 -14 11 -13 12 7 2 25 -12 46
-5 36 12 -5 8 -1 9 10 5 10 -4 15 -3 11 3 -3 6 0 10 7 10 8 0 7 4 -4 10 -13 8
-15 17 -8 40 5 17 6 30 3 30 -3 0 0 7 7 15 6 8 9 18 6 24 -8 12 23 43 35 36 5
-4 9 -1 9 5 0 7 -8 9 -21 5 -14 -5 -20 -3 -17 5 2 6 7 11 12 10 14 -3 26 23
20 43 -3 9 0 17 6 17 6 0 9 4 5 9 -3 5 0 13 6 17 8 4 9 3 5 -4 -4 -8 -2 -10 8
-6 8 3 12 12 10 19 -3 8 -13 11 -22 7 -14 -5 -15 -4 -2 10 16 17 44 13 33 -5
-4 -6 -1 -7 7 -2 10 6 8 13 -11 28 -24 20 -24 20 -2 15 14 -4 21 -2 20 6 -1 6
3 10 9 9 13 -2 12 42 0 54 -5 5 -6 2 -1 -7 8 -13 7 -13 -8 -1 -18 15 -23 26
-7 16 9 -6 14 8 11 28 -1 5 3 6 8 2 6 -3 8 -12 4 -20 -3 -8 -1 -15 5 -15 5 0
8 10 7 22 -1 13 -3 23 -4 23 -2 0 -4 8 -6 17 -2 11 2 15 12 11 12 -5 12 -7 1
-14 -7 -5 -8 -9 -3 -9 6 0 17 5 25 10 11 7 11 10 2 10 -7 0 -10 5 -6 12 4 6 3
8 -2 5 -6 -3 -10 5 -10 17 0 19 5 23 28 21 16 -2 31 1 34 6 3 5 2 8 -3 7 -4
-2 -8 2 -8 7 0 6 3 9 7 8 3 -1 5 5 3 15 -1 9 0 21 3 27 11 18 9 50 -2 57 -7 5
-4 8 7 8 9 0 17 -5 17 -12 0 -6 2 -9 5 -6 9 9 -6 37 -23 42 -10 2 -6 4 8 3 30
-2 53 11 44 24 -3 5 -10 7 -15 3 -5 -3 -6 -10 -3 -16 4 -7 2 -8 -5 -4 -9 6 -9
11 -1 21 8 10 8 19 1 34 -8 14 -8 22 1 27 6 4 8 3 5 -3 -8 -13 22 -55 34 -48
5 4 4 15 -3 28 -14 25 -18 58 -7 51 4 -2 14 2 22 10 8 8 18 12 22 8 5 -4 5 -1
1 6 -4 7 -2 12 5 12 8 0 6 5 -4 13 -16 11 -16 14 -2 32 9 11 13 13 9 5 -7 -13
-5 -13 9 -1 19 15 22 31 6 31 -5 0 -8 -4 -5 -8 2 -4 -4 -8 -15 -8 -19 0 -19 1
-3 13 9 7 22 14 28 16 7 3 6 9 -3 21 -13 15 -13 19 0 26 17 11 19 30 5 49 -9
12 -8 13 4 6 8 -5 26 -10 40 -11 25 -2 25 -2 3 8 -24 12 -29 23 -14 33 6 3 14
-2 19 -11 8 -15 10 -15 15 0 4 10 3 15 -3 11 -6 -3 -10 1 -10 9 0 10 6 13 15
10 8 -4 15 -1 15 6 0 6 -4 8 -10 5 -5 -3 -10 2 -11 12 0 10 -3 13 -6 6 -2 -7
-9 -13 -15 -13 -6 0 -5 6 2 15 9 11 16 12 25 5 9 -7 16 -5 26 7 13 17 13 17
-5 3 -18 -14 -19 -13 -13 3 4 10 7 21 7 23 0 3 6 2 13 -2 9 -6 8 -3 -1 8 -11
14 -10 20 9 39 16 16 18 21 6 16 -11 -4 -17 -1 -17 9 0 9 5 12 13 8 6 -4 9 -4
5 1 -4 4 -3 13 2 20 7 8 5 12 -5 12 -8 0 -12 -4 -9 -9 3 -4 0 -8 -6 -8 -21 0
-4 24 20 30 22 5 38 40 19 40 -6 0 -8 4 -4 9 3 5 1 12 -4 15 -5 4 -13 1 -17
-5 -5 -8 -3 -9 7 -4 8 5 11 5 7 0 -4 -4 -3 -16 3 -26 7 -15 6 -19 -5 -19 -8 0
-18 5 -21 10 -4 6 -11 7 -17 4 -7 -4 -8 -2 -4 5 6 9 11 9 22 0 14 -11 20 1 7
15 -4 3 -8 12 -9 19 -2 15 33 20 41 6 4 -5 12 -9 18 -9 7 0 4 5 -6 11 -12 7
-15 15 -9 22 7 10 9 32 2 40 -7 9 -6 36 1 31 5 -3 7 -10 4 -15 -4 -5 -1 -9 4
-9 18 0 12 18 -11 34 -12 9 -19 16 -14 16 5 0 1 10 -10 23 -19 22 -19 22 2 5
14 -12 24 -15 32 -8 9 7 9 7 2 -2 -5 -7 -10 -17 -10 -22 0 -6 7 -2 15 8 8 10
12 23 9 27 -3 5 0 9 7 9 7 0 10 3 7 6 -4 3 -15 1 -27 -5 -13 -8 -22 -8 -26 -1
-4 6 -1 9 6 8 7 -2 13 2 14 9 0 6 4 15 9 20 5 4 7 3 3 -3 -3 -6 0 -11 7 -11 8
0 11 8 8 20 -4 15 -2 18 9 12 11 -6 12 -5 2 6 -18 19 -16 29 5 23 9 -2 7 1 -5
7 -26 14 -30 37 -8 45 8 4 13 10 10 14 -3 5 0 12 6 16 8 4 9 3 5 -4 -5 -8 -1
-10 10 -5 15 5 15 7 -2 16 -13 7 -20 5 -31 -9 -7 -10 -13 -13 -13 -7 0 18 25
33 48 28 12 -2 25 2 28 8 4 7 4 9 -1 5 -4 -4 -15 -2 -23 5 -13 9 -14 9 -8 0 5
-9 2 -11 -8 -7 -13 5 -12 9 4 26 11 12 17 25 14 30 -3 5 0 15 6 23 7 8 9 15 5
15 -4 0 -2 7 5 15 6 8 9 18 6 24 -3 5 4 8 17 7 20 -2 23 1 19 20 -3 15 -9 21
-16 17 -6 -4 -5 1 3 10 7 9 10 17 7 17 -4 0 -1 6 7 14 8 8 25 13 38 10 l24 -5
-22 10 c-13 6 -23 13 -23 16 0 4 5 3 10 0 6 -3 10 -2 10 4 0 5 -4 13 -10 16
-5 3 -10 12 -9 18 0 9 2 8 6 -1 2 -6 9 -9 14 -6 6 4 6 11 -1 19 -7 9 -6 16 5
25 8 7 13 16 10 20 -11 18 14 19 31 3 17 -17 18 -17 10 2 -13 34 -15 54 -6 60
5 3 12 0 16 -6 4 -7 3 -9 -3 -6 -5 3 -10 0 -10 -8 0 -12 3 -12 15 -2 13 10 14
8 8 -13 -5 -20 -5 -21 3 -9 8 12 7 24 -3 43 -7 14 -15 24 -17 21 -3 -2 -5 5
-5 16 0 17 3 16 23 -8 13 -14 23 -22 23 -17 0 6 -6 16 -12 23 -11 12 -10 13 6
7 16 -5 17 -4 6 9 -7 8 -17 12 -23 8 -6 -3 -7 -1 -3 5 5 9 13 9 26 2 16 -8 18
-8 14 5 -4 8 -10 15 -15 15 -5 0 -9 5 -9 11 0 8 5 7 15 -1 9 -7 17 -11 18 -9
1 2 9 16 16 31 8 15 18 25 22 22 4 -2 6 5 4 16 -2 12 2 23 10 27 8 3 13 9 10
13 -3 4 2 13 10 20 14 11 14 15 1 29 -14 15 -13 17 7 18 12 1 23 7 25 13 2 5
8 8 13 4 5 -3 8 0 7 8 -2 7 5 12 14 12 10 -1 14 4 11 12 -3 10 -9 11 -17 5 -6
-5 -14 -10 -18 -10 -5 -1 -8 -4 -7 -7 1 -8 -22 -24 -34 -24 -5 0 -1 7 7 16 9
8 13 21 9 27 -3 7 -3 9 2 5 4 -4 14 -3 22 3 7 6 13 8 13 3 0 -5 5 -2 10 6 8
12 10 12 10 1 0 -9 4 -10 13 -4 14 11 57 11 74 0 6 -4 14 -3 18 3 3 5 1 10 -6
10 -7 0 -9 3 -6 7 4 3 15 0 24 -9 10 -8 27 -14 38 -13 11 0 28 -3 37 -7 10 -5
18 -3 21 5 3 7 6 5 6 -5 1 -10 6 -18 12 -18 6 0 8 10 5 23 -3 12 -3 16 0 9 5
-10 9 -10 22 0 13 11 14 11 8 -1 -6 -9 -5 -12 5 -9 8 3 13 12 11 19 -3 11 -1
12 10 1 11 -11 10 -14 -2 -22 -8 -6 -21 -8 -27 -5 -21 7 -15 -3 8 -16 12 -6
19 -7 16 -2 -3 5 3 14 13 21 14 9 21 9 26 0 4 -7 3 -8 -4 -4 -8 5 -10 1 -5
-10 6 -16 7 -16 16 3 8 17 14 20 37 13 16 -5 31 -5 35 -2 3 4 11 0 16 -8 7
-11 9 -6 5 18 -4 33 -4 33 19 18 22 -14 25 -14 33 0 8 15 10 15 16 -1 5 -14 9
-15 22 -5 10 10 18 10 26 2 6 -6 18 -8 27 -4 14 5 14 3 3 -10 -9 -11 -10 -18
-2 -23 9 -6 14 1 11 18 -2 11 13 8 29 -6 12 -10 12 -9 1 6 -13 16 -2 25 13 10
10 -11 66 -11 60 -1 -3 4 0 8 5 8 6 0 11 -5 11 -12 0 -6 2 -9 5 -6 3 3 3 13
-1 22 -5 13 -9 14 -20 5 -10 -8 -14 -8 -14 0 0 6 3 11 8 12 23 2 49 7 62 10 8
2 15 -2 16 -8 1 -7 3 -16 4 -20 1 -5 2 -12 1 -16 -1 -5 3 -6 9 -2 8 5 7 11 -1
21 -9 11 -9 14 1 14 9 0 7 8 -6 23 l-19 22 22 -19 c12 -10 21 -23 20 -28 -1
-6 6 -12 16 -13 9 -2 17 1 17 6 0 5 -3 9 -8 9 -4 0 -13 10 -21 23 -10 17 -11
19 0 10 21 -20 31 -15 19 10 -11 22 -11 22 6 2 12 -14 18 -16 21 -7 4 9 10 6
24 -9 15 -17 19 -18 19 -6 0 8 -6 18 -12 20 -7 3 1 3 17 2 17 -2 34 -4 39 -4
4 -1 6 -8 2 -16 -8 -22 1 -18 14 4 7 14 7 22 -2 27 -7 5 -8 3 -3 -6 5 -9 4
-11 -4 -6 -20 13 -1 27 20 15 17 -9 18 -13 7 -26 -11 -14 -10 -14 13 0 14 10
28 15 31 12 2 -3 5 2 5 10 0 8 -4 12 -9 9 -4 -3 -8 -1 -8 4 0 6 7 13 16 16 8
3 12 2 9 -4 -10 -16 7 -11 19 6 13 17 50 9 39 -9 -3 -6 -1 -7 6 -3 9 6 9 11 1
21 -9 10 -7 16 9 24 17 9 22 8 31 -9 6 -11 16 -20 23 -19 9 0 9 2 0 6 -7 2
-13 9 -13 15 0 6 7 7 16 4 14 -5 15 -4 4 9 -7 8 -16 13 -20 10 -10 -6 -7 22 4
32 4 4 6 1 4 -7 -2 -8 3 -14 10 -12 8 1 11 -2 6 -9 -5 -9 -1 -10 14 -7 12 3
23 1 25 -5 2 -6 6 -4 10 5 4 13 1 16 -15 13 -13 -3 -18 -1 -12 4 5 5 20 11 34
13 14 2 24 9 22 16 -1 8 2 10 8 7 6 -4 9 -13 6 -21 -9 -22 0 -16 20 13 13 22
14 25 2 15 -13 -10 -17 -10 -21 2 -4 9 -1 18 5 22 7 5 8 2 3 -6 -6 -10 -4 -12
8 -7 9 3 24 -1 34 -11 16 -16 16 -16 10 2 -6 14 -4 17 8 12 9 -3 14 -2 11 3
-5 8 17 23 36 25 4 1 15 12 25 26 16 23 16 24 0 11 -9 -7 -17 -9 -17 -3 0 13
24 22 37 14 5 -4 13 -14 16 -22 3 -8 5 1 3 22 -2 27 0 35 11 31 9 -4 11 0 7
11 -4 11 -2 16 7 14 8 -2 13 3 11 10 -1 8 2 11 8 7 7 -4 7 -12 0 -25 -9 -18
-8 -18 20 -9 34 12 42 24 9 14 -15 -5 -19 -4 -14 4 4 7 1 20 -6 29 -10 12 -8
12 9 -2 18 -16 22 -16 17 -4 -4 9 -1 19 6 24 7 4 10 3 5 -4 -3 -6 1 -9 11 -8
9 2 19 8 21 14 2 7 9 9 14 6 7 -5 8 -2 3 6 -6 10 -4 12 11 6 16 -6 17 -5 6 6
-11 11 -17 9 -32 -10 -17 -21 -19 -21 -17 -3 0 11 4 19 7 18 3 -1 15 5 28 12
13 7 33 14 44 16 11 3 23 7 27 10 3 4 -6 4 -21 1 -20 -3 -25 0 -24 12 2 9 8
18 14 20 6 2 8 11 5 20 -4 15 -3 15 6 2 8 -11 7 -18 -5 -27 -15 -11 -14 -12 4
-10 14 1 19 7 16 20 -6 34 13 56 43 51 21 -3 24 -2 13 6 -13 8 -13 10 -1 10
11 0 9 4 -5 14 -18 14 -18 15 -1 12 10 -1 23 -9 29 -17 8 -12 9 -12 5 1 -2 8
3 24 12 34 9 11 11 16 5 13 -7 -4 -17 -1 -23 7 -8 10 -6 17 9 31 20 18 56 13
44 -6 -5 -8 -3 -9 6 -4 10 6 6 14 -16 32 -31 24 -27 30 8 12 20 -11 20 -10 4
12 -9 13 -16 28 -16 34 0 5 5 3 10 -5 5 -8 10 -13 11 -10 0 3 3 14 5 25 3 11
6 25 6 32 1 6 7 9 14 6 6 -2 15 1 20 8 4 8 3 10 -4 5 -7 -4 -12 -2 -12 4 0 6
-5 8 -12 4 -7 -4 -8 -3 -4 5 4 6 11 9 16 6 10 -6 40 4 40 15 0 4 -10 12 -22
18 -21 10 -21 11 -3 9 11 -1 21 2 22 7 1 5 7 12 13 16 9 6 9 13 1 28 -9 17 -8
22 9 27 21 7 28 25 10 25 -5 0 -10 -4 -10 -9 0 -5 -10 -11 -22 -14 -22 -6 -22
-6 -4 8 18 14 15 20 -7 16 -5 -1 -6 3 -2 9 3 6 11 7 17 4 7 -5 9 -1 5 9 -4 12
-2 14 10 10 11 -4 14 -2 9 5 -4 6 1 24 11 39 10 15 12 24 6 20 -18 -11 -16 9
3 27 18 19 4 22 -15 3 -11 -9 -13 -9 -7 1 4 7 2 12 -6 12 -8 0 -6 5 5 11 15 9
16 13 5 27 -10 12 -10 14 0 8 6 -4 12 -3 12 3 0 5 -6 12 -12 15 -7 3 -3 3 9 1
25 -7 36 5 21 25 -8 12 -9 12 -4 -2 8 -25 -1 -22 -15 3 -8 16 -8 20 0 14 8 -4
10 2 6 22 -12 53 -12 84 0 100 11 14 12 11 11 -19 0 -20 -4 -34 -8 -31 -5 2
-8 -1 -8 -6 0 -6 4 -11 9 -11 4 0 8 -10 7 -22 0 -11 6 -23 14 -25 9 -3 11 -1
5 4 -17 14 -17 36 -1 30 9 -4 18 -2 21 4 4 5 3 9 -2 8 -4 -1 -14 -1 -22 0 -11
1 -11 4 0 18 12 14 12 16 0 9 -9 -6 -12 -5 -9 5 3 8 11 13 17 11 7 -1 5 8 -5
23 -9 14 -19 23 -23 21 -4 -3 -13 -1 -20 3 -10 6 -9 10 4 14 9 4 13 3 10 -3
-3 -6 1 -7 9 -4 26 10 18 23 -12 19 -25 -4 -25 -3 6 11 18 8 30 19 27 24 -3 6
-8 10 -11 10 -3 0 -2 -5 1 -10 3 -5 0 -10 -7 -10 -8 0 -15 13 -16 30 -2 24 1
28 15 23 19 -7 18 -5 -11 17 -11 8 -17 10 -13 3 4 -6 3 -14 -3 -18 -7 -4 -7
-12 0 -26 6 -11 7 -19 2 -19 -15 0 -21 37 -9 49 6 6 7 11 3 11 -5 0 -2 8 5 17
12 15 12 16 -3 10 -10 -3 -20 -1 -24 5 -4 7 -3 8 4 4 8 -5 12 4 12 29 0 26 3
34 13 29 8 -5 8 -2 -2 9 -7 9 -19 17 -25 17 -6 0 -5 -4 3 -9 8 -5 9 -11 3 -15
-5 -3 -13 1 -16 10 -9 22 -8 24 10 24 8 0 12 5 9 10 -4 6 -11 8 -16 5 -5 -4
-9 -2 -9 4 0 5 8 15 18 20 23 14 6 14 -19 1 -24 -13 -24 -6 -1 17 9 10 15 17
13 15 -2 -1 -14 6 -25 15 -20 17 -20 17 -7 0 11 -13 11 -20 3 -28 -7 -5 -10
-6 -7 -3 2 4 0 15 -5 25 -7 12 -7 20 0 24 7 4 7 12 0 25 -5 10 -7 20 -2 23 4
2 2 2 -5 1 -7 -2 -19 3 -27 11 -7 8 -17 11 -20 7 -4 -3 -4 1 0 11 4 12 -1 20
-17 27 -20 9 -21 10 -3 7 12 -3 21 1 21 8 0 7 -10 12 -23 10 -22 -2 -27 16 -9
32 4 4 5 3 2 -3 -3 -6 0 -11 8 -11 11 0 12 4 4 14 -6 7 -15 10 -20 7 -5 -3 -9
2 -9 10 0 9 -7 16 -15 16 -12 0 -13 -4 -6 -18 7 -14 6 -19 -3 -19 -7 0 -12 10
-11 21 3 26 -13 48 -28 39 -6 -4 -7 -1 -3 6 6 9 12 9 25 -3 15 -14 17 -13 17
3 0 13 -7 17 -25 15 -13 -1 -34 4 -45 13 -16 12 -17 14 -3 10 20 -7 23 18 6
43 -8 12 -9 10 -4 -7 8 -29 -11 -31 -20 -2 -5 14 -10 17 -18 10 -13 -10 -52
11 -40 22 3 4 12 -1 19 -11 12 -15 13 -15 14 -1 0 24 -27 31 -45 13 -8 -9 -15
-12 -15 -7 0 5 5 14 11 20 7 7 6 12 -6 17 -10 4 -14 2 -9 -6 4 -6 3 -8 -4 -4
-5 3 -13 0 -15 -6 -4 -9 -6 -9 -6 -1 -1 6 7 20 17 29 16 17 16 18 -1 11 -10
-4 -23 -7 -28 -7 -6 0 -8 -4 -5 -8 3 -5 -1 -9 -9 -9 -8 0 -16 6 -19 13 -3 8 0
11 10 7 10 -4 13 0 8 13 -5 16 -4 17 6 4 8 -10 10 -11 8 -2 -2 8 -6 12 -8 11
-3 -1 -16 4 -30 11 -14 8 -31 15 -39 16 -8 2 -18 8 -22 16 -4 7 -11 9 -15 5
-10 -10 -35 13 -27 27 3 6 0 6 -8 -1 -7 -7 -16 -13 -21 -13 -4 0 -6 6 -4 13 1
6 1 9 -1 5 -3 -5 -9 -8 -14 -8 -6 0 -8 4 -5 9 7 11 -21 8 -31 -4 -4 -4 -3 -6
2 -2 6 3 18 0 27 -7 15 -11 15 -13 -3 -24 -11 -7 -19 -8 -19 -2 0 5 5 10 12
10 18 0 0 13 -23 17 -13 2 -18 -1 -13 -8 3 -6 -5 -3 -20 6 -14 10 -26 19 -26
21 0 7 25 -1 33 -11 5 -6 7 -4 5 4 -5 17 -35 24 -44 10 -3 -5 -10 -7 -15 -3
-5 3 -18 0 -27 -8 -15 -12 -16 -11 -4 4 8 10 9 18 3 22 -6 4 -9 12 -7 19 1 7
1 9 -1 4 -3 -4 -10 -4 -15 -1 -6 4 -8 2 -4 -4 3 -5 3 -12 -1 -15 -5 -2 -2 -2
5 -1 17 5 15 -13 -2 -19 -8 -3 -17 1 -20 9 -5 12 -10 13 -28 4 -22 -11 -22
-10 -4 4 10 9 23 13 27 10 5 -3 9 -1 9 4 0 6 -7 13 -16 16 -8 3 -12 2 -9 -4 3
-6 -1 -10 -10 -10 -9 0 -13 5 -10 10 3 6 1 10 -5 10 -7 0 -9 -7 -6 -16 3 -8 2
-12 -4 -9 -6 3 -7 -1 -4 -9 3 -9 1 -16 -4 -16 -6 0 -9 14 -7 33 3 23 2 28 -5
17 -9 -13 -10 -13 -10 0 0 12 -2 12 -9 2 -11 -18 -21 -15 -47 9 -16 15 -24 17
-29 8 -6 -8 -4 -10 5 -4 10 6 11 4 6 -11 -5 -10 -9 -25 -9 -31 0 -7 -5 -9 -11
-5 -14 10 -77 9 -93 -1 -10 -6 -11 -2 -4 32 1 2 9 -3 18 -10 15 -12 16 -12 8
1 -7 12 -6 13 6 4 18 -14 49 -14 49 0 0 6 5 4 11 -4 9 -13 10 -13 6 0 -5 16
-10 16 -41 4 -15 -6 -17 -4 -11 6 5 8 4 11 -3 6 -6 -3 -14 -2 -17 4 -5 8 -11
7 -21 -1 -8 -6 -14 -8 -14 -4 0 4 -6 3 -12 -2 -7 -6 -25 -9 -40 -8 -15 1 -26
-1 -24 -4 3 -3 -2 -15 -11 -26 -13 -19 -14 -18 -7 9 6 26 5 28 -8 15 -9 -7
-15 -18 -13 -24 1 -5 0 -6 -3 -2 -2 4 -11 0 -19 -10 -13 -16 -13 -16 -2 7 7
14 16 28 21 31 5 3 2 9 -7 12 -9 4 -14 3 -11 -1 2 -4 -5 -19 -16 -32 -11 -14
-17 -20 -14 -14 5 10 -11 19 -52 29 -10 3 -11 0 -1 -11 9 -11 8 -14 -2 -14
-12 0 -12 -2 -1 -9 11 -7 11 -9 -1 -14 -12 -4 -15 0 -12 14 3 13 0 19 -8 16
-7 -2 -12 -11 -12 -20 0 -20 -18 -24 -23 -5 -2 9 0 8 8 -2 10 -13 11 -13 7 0
-2 8 -8 15 -13 15 -5 0 -15 4 -23 9 -10 6 -12 5 -7 -2 4 -7 3 -12 -3 -12 -10
0 -27 -39 -23 -53 1 -5 -2 -6 -8 -2 -7 4 -7 13 1 27 8 15 8 23 -2 32 -8 7 -10
7 -6 0 4 -6 -1 -20 -9 -30 -9 -10 -13 -13 -9 -6 3 6 0 12 -7 12 -11 0 -10 2 0
9 11 7 11 9 -1 14 -11 4 -14 -1 -12 -19 1 -13 -2 -24 -6 -24 -5 0 -9 4 -9 10
0 5 -10 14 -22 20 -22 11 -22 10 -4 -4 11 -9 15 -16 9 -16 -5 0 -15 -10 -21
-22 -6 -13 -11 -17 -11 -10 -1 7 -5 11 -10 7 -5 -3 -12 -1 -16 4 -3 6 3 8 13
6 11 -2 19 3 19 11 0 10 -4 11 -14 3 -7 -6 -13 -8 -13 -4 0 4 -6 2 -13 -4 -8
-6 -16 -8 -19 -5 -3 2 -8 -2 -12 -11 -5 -13 -2 -14 15 -4 13 6 19 7 15 1 -3
-6 0 -13 6 -16 7 -3 3 -3 -9 0 -18 4 -22 2 -16 -12 5 -15 4 -14 -15 2 -17 14
-19 21 -9 33 10 14 10 14 -4 4 -10 -9 -19 -9 -26 -2 -6 6 -10 5 -10 -5 0 -8 3
-13 7 -11 3 2 11 -5 17 -15 14 -21 2 -22 -34 -2 -31 17 -41 15 -15 -4 12 -8
22 -21 22 -27 0 -7 -5 -4 -11 6 -6 9 -15 14 -21 11 -6 -4 -15 0 -20 7 -7 10
-8 8 -5 -8 6 -28 -1 -29 -20 -5 -8 9 -12 11 -8 5 3 -7 1 -14 -4 -14 -6 -1 -16
-2 -23 -3 -6 0 -13 -8 -15 -16 -4 -13 -3 -13 6 0 16 22 13 -1 -4 -30 l-15 -25
3 25 c1 19 -3 24 -18 24 -12 1 -20 -6 -19 -15 1 -9 -5 -16 -12 -16 -7 0 -11 3
-9 7 5 8 -52 6 -61 -2 -4 -4 3 -6 14 -3 23 4 39 -10 23 -19 -5 -4 -13 -2 -16
4 -5 7 -11 8 -19 1 -9 -8 -12 2 -11 38 1 36 -2 48 -12 44 -7 -3 -10 -10 -6
-17 11 -16 12 -35 3 -41 -4 -2 -7 5 -6 17 0 12 -4 23 -11 25 -7 3 -10 -4 -7
-19 4 -21 4 -21 -5 -3 -7 15 -5 23 8 33 9 7 15 14 14 15 -1 1 -6 14 -12 29 -8
21 -7 26 3 22 7 -3 12 -16 10 -30 -2 -21 0 -23 12 -13 16 13 19 23 4 14 -14
-9 -12 8 3 24 10 11 9 12 -2 6 -10 -6 -12 -2 -6 16 5 18 4 20 -4 9 -9 -13 -12
-13 -23 -1 -11 11 -11 13 1 6 11 -6 13 -4 8 9 -4 10 -3 15 3 11 6 -3 10 -2 10
4 0 5 -6 12 -12 14 -8 3 -6 6 5 6 16 1 16 4 2 37 -10 25 -12 41 -5 49 6 7 6
16 0 23 -7 9 -7 9 2 2 14 -12 20 -43 7 -34 -5 3 -9 0 -9 -5 0 -6 5 -11 11 -11
5 0 8 -4 5 -8 -2 -4 -1 -14 4 -21 4 -8 7 2 6 25 -3 53 -15 86 -28 78 -7 -4 -8
-2 -4 5 4 6 12 9 17 6 5 -4 9 1 9 9 0 10 -7 13 -21 11 -17 -4 -19 -2 -9 10 15
18 24 20 14 3 -5 -7 -3 -8 6 -3 10 6 9 11 -6 23 -18 14 -18 14 3 8 12 -4 24
-2 28 4 3 5 -1 10 -9 10 -19 0 -21 16 -4 26 7 5 8 2 3 -7 -5 -8 -5 -11 0 -7 4
4 15 2 24 -5 14 -10 14 -10 3 5 -7 9 -9 18 -5 20 4 3 3 4 -3 2 -6 -1 -17 3
-23 9 -8 8 -11 7 -11 -3 0 -7 -3 -11 -6 -8 -3 4 -1 15 5 27 7 13 8 22 1 26 -5
3 -10 12 -10 18 0 7 5 4 11 -6 8 -14 14 -16 25 -6 8 7 14 7 14 1 0 -5 -7 -12
-15 -16 -17 -6 -20 -26 -4 -26 5 0 7 5 3 12 -5 8 -2 9 12 4 10 -4 15 -4 12 0
-4 4 -3 16 3 27 8 14 8 18 0 13 -10 -7 -16 6 -12 27 1 5 -3 6 -8 3 -5 -3 -14
1 -21 9 -9 10 -9 15 -1 15 6 0 11 -5 11 -11 0 -5 5 -7 10 -4 8 5 7 12 -2 23
-12 15 -11 16 4 3 10 -7 16 -16 14 -20 -3 -4 -1 -13 4 -20 5 -9 7 -2 6 18 0
17 -7 33 -15 36 -11 4 -11 8 -1 20 15 18 0 20 -20 3 -12 -11 -12 -10 -1 4 9
12 22 16 40 12 l26 -5 -25 16 c-14 9 -17 14 -8 11 10 -3 20 0 24 6 4 7 3 8 -4
4 -8 -4 -12 0 -12 11 0 11 -6 25 -12 32 -11 11 -9 11 9 2 12 -6 24 -16 26 -23
4 -11 6 -11 6 0 1 7 -8 20 -19 29 -25 21 -26 33 -2 33 15 0 15 -2 2 -11 -10
-7 -11 -9 -2 -7 8 2 13 7 12 12 -1 5 4 13 12 18 10 7 9 8 -4 4 -12 -3 -18 0
-18 9 0 9 6 12 18 9 9 -3 6 2 -8 10 -14 8 -19 15 -12 16 7 0 12 8 10 18 -2 11
4 17 17 17 16 0 20 7 21 33 0 18 -3 35 -7 37 -4 3 -5 -11 -3 -30 2 -21 -1 -33
-6 -30 -6 3 -8 16 -6 28 1 12 -4 28 -13 35 -14 11 -14 11 3 6 16 -6 17 -4 7
14 -10 18 -9 21 4 16 8 -3 13 -10 10 -14 -3 -4 1 -10 8 -13 10 -4 13 2 9 19
-2 13 -9 22 -14 21 -6 -1 -13 5 -15 13 -4 13 -3 13 6 0 6 -8 11 -12 12 -7 5
25 3 33 -11 45 -13 11 -13 11 1 7 9 -3 22 2 30 11 13 15 11 16 -11 9 -22 -6
-23 -5 -10 6 37 32 42 46 27 76 -16 34 -16 69 1 66 13 -3 14 -2 19 57 5 66 6
70 17 70 5 0 2 6 -9 13 -14 11 -15 16 -5 22 9 6 11 4 5 -5 -5 -9 -4 -11 4 -6
8 6 9 12 2 20 -7 9 -7 16 0 23 8 8 8 13 0 17 -6 4 -11 12 -11 18 0 6 7 5 17
-3 15 -13 15 -12 4 9 -6 12 -9 22 -5 22 3 0 1 7 -6 15 -9 11 -9 19 -2 28 13
15 10 47 -4 48 -5 1 -17 5 -27 11 -18 9 -18 10 0 30 17 20 17 21 0 15 -11 -4
-16 -3 -12 3 10 17 38 12 31 -6 -4 -10 -2 -13 6 -8 7 4 8 3 4 -5 -4 -6 -11 -9
-16 -6 -5 3 -11 1 -14 -4 -3 -5 1 -11 9 -15 8 -3 15 0 15 6 0 7 4 7 14 -1 10
-8 16 -9 21 -1 4 6 1 9 -7 8 -7 -2 -12 3 -10 11 1 7 -3 19 -9 27 -6 8 -8 14
-5 14 4 0 2 9 -4 20 -7 12 -16 18 -23 13 -7 -4 -7 0 2 10 15 19 26 23 15 5 -5
-7 -3 -8 6 -3 8 5 11 4 6 -3 -3 -6 -1 -14 5 -18 8 -4 9 -3 5 4 -4 7 -1 12 6
12 9 0 9 3 -2 10 -8 5 -15 15 -15 21 0 19 -23 22 -28 4 -4 -11 -4 -11 -3 2 1
12 9 17 22 16 13 -1 20 4 21 17 1 11 -3 20 -8 20 -6 0 -7 -4 -4 -10 9 -15 -4
-12 -21 5 -9 8 -11 15 -5 15 6 0 11 7 11 16 0 8 3 13 8 11 4 -3 8 10 8 29 1
23 -3 34 -12 34 -8 0 -14 -5 -14 -11 0 -5 4 -8 8 -5 5 3 9 -1 9 -9 0 -8 -5
-11 -10 -8 -6 3 -7 1 -3 -5 4 -7 3 -19 -2 -28 -6 -11 -8 -2 -7 28 1 23 -1 48
-4 53 -10 17 -10 35 0 29 5 -3 10 6 10 20 2 34 3 39 12 54 5 7 2 18 -7 27 -13
14 -15 12 -12 -20 4 -38 -9 -54 -27 -36 -9 9 -8 11 5 6 12 -5 16 -2 13 12 -1
10 -8 17 -14 16 -16 -4 -14 5 9 30 11 12 18 27 16 33 -2 6 1 17 7 23 8 8 8 11
-1 11 -11 0 -16 -12 -14 -32 2 -13 -26 -29 -33 -18 -4 6 -3 10 2 9 20 -3 25 2
13 16 -7 8 -15 13 -19 11 -4 -3 -7 4 -7 15 0 19 1 18 17 -3 l17 -22 4 25 c2
18 8 23 23 21 28 -5 13 8 -16 13 -13 3 -25 9 -27 15 -2 6 -7 8 -11 6 -4 -3 -7
5 -6 17 1 12 -4 30 -12 39 -11 12 -12 21 -4 36 6 11 7 23 3 27 -4 5 -1 5 6 1
9 -5 9 -12 1 -28 -8 -15 -8 -23 1 -32 10 -8 11 -7 8 4 -3 8 -1 23 4 32 7 14 2
22 -24 38 -18 11 -28 20 -22 20 6 0 10 12 9 28 0 15 -6 27 -12 27 -6 0 -15 4
-20 9 -4 5 -3 6 4 2 7 -3 14 2 18 14 3 11 11 20 17 20 6 0 8 3 5 6 -4 4 -13 1
-22 -6 -9 -7 -18 -10 -22 -6 -3 3 -1 6 5 6 7 0 12 8 12 18 0 10 6 24 13 31 10
11 10 13 0 7 -16 -9 -17 6 -1 22 9 9 9 12 0 12 -7 0 -12 -6 -12 -12 0 -9 -4
-8 -10 2 -13 20 -13 4 0 -20 7 -13 7 -21 0 -25 -6 -4 -10 -3 -9 2 3 19 -2 34
-9 29 -5 -3 -8 5 -7 17 1 16 8 21 21 19 16 -2 17 -1 4 8 -13 9 -13 11 0 20 11
8 9 9 -11 5 -17 -4 -26 -2 -26 7 0 7 -4 21 -8 31 -4 10 -3 17 5 17 6 0 8 -5 4
-12 -4 -7 -3 -8 4 -4 8 5 10 2 6 -8 -3 -9 -2 -16 3 -16 13 0 12 33 -1 43 -8 6
-7 10 2 14 16 6 5 23 -16 23 -13 0 -14 -2 -3 -9 9 -6 10 -11 2 -15 -6 -4 -11
-2 -11 4 0 6 -5 8 -12 4 -10 -6 -10 -4 0 8 10 13 10 17 0 21 -10 4 -10 6 0 6
6 1 12 13 12 27 0 16 4 23 12 18 7 -5 8 -3 4 5 -6 9 -12 9 -25 -3 -10 -9 -22
-16 -27 -16 -5 0 -3 4 5 9 16 10 5 34 -12 25 -7 -3 -5 0 3 8 8 7 16 20 18 28
2 8 9 19 15 23 7 5 3 6 -10 2 -12 -3 -25 -1 -29 7 -12 19 -14 39 -3 32 5 -3 6
-10 3 -16 -5 -7 -2 -8 6 -3 9 6 11 4 5 -5 -5 -9 -4 -11 3 -6 9 5 7 14 -4 31
-14 21 -14 24 3 34 16 9 15 10 -7 8 -17 -1 -24 3 -22 12 2 8 -3 11 -12 8 -9
-4 -18 -2 -20 2 -3 5 5 8 17 7 14 -1 21 -7 19 -16 -3 -13 -1 -13 10 -1 11 11
11 14 0 18 -10 4 -10 8 -1 19 7 8 9 17 5 21 -3 3 -6 0 -6 -8 0 -12 -2 -11 -11
1 -9 13 -10 12 -5 -2 3 -10 1 -18 -5 -18 -7 0 -9 10 -5 25 5 18 3 24 -6 23 -7
-2 -13 4 -13 12 0 8 -4 19 -10 23 -6 5 -4 7 5 4 8 -2 14 -13 12 -23 -3 -13 0
-16 7 -9 12 12 3 58 -9 50 -5 -3 -12 0 -16 6 -4 8 -3 9 4 5 7 -4 12 -2 12 4 0
6 4 9 8 6 5 -3 9 1 9 9 0 8 -3 13 -5 10 -3 -3 -12 1 -21 8 -14 10 -14 10 -3
-5 13 -17 12 -17 -27 -9 -2 1 2 8 9 16 7 9 19 14 26 11 8 -3 13 0 11 7 -2 14
-39 37 -48 31 -4 -2 -6 4 -4 13 2 10 4 21 4 25 1 4 9 5 19 2 14 -5 15 -4 2 5
-12 9 -13 11 -1 11 8 0 11 3 8 6 -4 4 -19 -1 -34 -11 l-28 -18 25 28 c14 16
19 25 13 21 -9 -5 -13 0 -13 13 0 10 -3 28 -6 38 -4 13 -3 14 4 5 7 -11 11
-10 16 4 3 9 4 19 1 22 -3 3 -5 1 -5 -4 0 -5 -9 -10 -20 -10 -11 0 -20 4 -20
8 0 4 8 8 18 8 14 0 15 2 2 9 -8 6 -17 8 -21 5 -4 -2 -6 4 -5 13 2 10 -4 21
-12 24 -13 4 -12 7 5 11 16 4 20 1 19 -16 -1 -12 6 -22 15 -24 19 -3 33 24 18
33 -5 4 -8 1 -7 -6 2 -6 -2 -13 -8 -16 -7 -2 -10 11 -10 36 1 22 -1 39 -4 38
-3 -1 -5 2 -5 8 0 5 4 9 9 7 5 -2 4 4 -3 12 -7 8 -19 12 -27 9 -8 -3 -14 1
-14 8 0 11 -3 11 -11 -1 -9 -13 -10 -13 -6 0 2 8 11 14 20 12 25 -4 14 28 -19
56 l-29 25 39 -22 c22 -13 34 -16 28 -8 -7 7 -8 17 -4 21 4 4 2 7 -3 6 -21 -5
-36 0 -30 10 4 6 10 8 15 5 5 -3 12 -1 15 5 4 6 1 9 -7 8 -7 -2 -12 3 -10 10
1 8 -2 11 -8 7 -6 -3 -8 -11 -5 -16 3 -5 -1 -6 -9 -3 -14 5 -14 8 -1 21 10 9
12 20 6 31 -4 9 -6 23 -4 30 3 6 0 12 -6 12 -5 0 -8 -9 -6 -19 3 -15 -2 -19
-16 -18 -16 1 -17 4 -7 12 7 5 15 19 16 29 3 18 2 18 -14 5 -16 -13 -16 -12
-4 8 8 12 19 19 25 16 5 -4 7 -3 3 2 -4 4 -2 15 5 24 10 14 10 14 -4 4 -16
-13 -29 -8 -29 9 0 5 4 7 8 4 5 -3 9 1 9 9 0 8 -4 12 -9 9 -4 -3 -8 0 -8 6 0
6 -5 8 -12 4 -9 -5 -9 -3 1 9 7 9 18 14 24 10 6 -4 7 -1 2 6 -5 9 -10 10 -18
2 -17 -17 -31 -13 -16 5 18 22 20 41 3 41 -8 0 -14 -4 -14 -9 0 -4 5 -8 11 -8
5 0 8 -4 5 -9 -7 -11 -32 -9 -43 4 -4 4 -2 5 6 0 11 -6 13 -3 9 13 -4 12 -1
25 4 29 7 3 8 1 4 -5 -5 -8 -2 -10 9 -6 14 6 14 8 -2 20 -10 7 -22 13 -28 14
-5 0 -3 -5 5 -10 12 -7 10 -9 -8 -7 -22 1 -32 17 -11 17 8 0 8 4 0 14 -8 10
-9 16 -1 21 9 6 14 -1 11 -17 0 -5 4 -8 9 -8 6 0 10 6 10 14 0 15 -27 29 -39
21 -11 -6 -10 28 1 42 6 7 5 14 -2 18 -8 5 -6 11 6 19 13 10 14 15 4 21 -9 5
-11 4 -6 -3 4 -7 3 -12 -3 -12 -5 0 -14 7 -18 15 -5 8 -20 16 -33 19 -14 2
-27 5 -29 5 -2 1 2 8 9 16 9 11 10 15 1 15 -8 0 -10 8 -6 20 5 15 3 18 -9 14
-9 -3 -16 -2 -16 4 0 6 8 9 18 7 9 -1 16 -10 16 -19 -1 -8 3 -13 9 -9 6 3 7 1
3 -5 -4 -7 -2 -12 3 -12 15 0 14 12 -5 38 -14 20 -12 27 9 23 5 -1 6 3 2 9 -4
7 -11 7 -18 2 -15 -12 -48 -12 -41 0 3 5 9 6 13 4 4 -3 8 4 8 15 1 11 -5 23
-13 26 -7 3 -11 9 -8 14 3 5 0 8 -8 7 -8 -2 -12 4 -10 15 2 9 -4 20 -12 23 -9
3 -13 10 -10 15 3 5 0 8 -8 7 -7 -2 -12 3 -10 10 1 8 -2 11 -9 6 -9 -5 -4 -15
16 -31 15 -13 25 -27 21 -30 -3 -3 -1 -12 5 -20 9 -9 8 -13 0 -13 -9 0 -15 15
-9 23 5 6 -36 45 -43 41 -4 -2 -6 5 -4 16 2 11 0 20 -5 20 -5 0 -12 9 -15 20
-3 11 -11 20 -16 20 -6 0 -6 -7 0 -18 7 -14 6 -19 -3 -19 -7 0 -12 10 -11 21
3 26 -13 48 -29 39 -6 -3 -8 -3 -4 2 8 8 -31 42 -43 38 -15 -5 -2 38 16 52 17
13 14 13 -15 -1 -32 -16 -34 -16 -21 0 12 14 12 16 -3 10 -9 -3 -16 -3 -16 0
0 4 10 10 22 15 l22 8 -22 5 c-12 4 -20 3 -18 0 2 -4 -5 -16 -16 -27 -15 -15
-18 -16 -13 -3 4 9 2 19 -4 22 -6 4 -8 13 -4 21 3 10 -1 15 -12 15 -9 0 -14
-4 -11 -8 3 -5 -1 -9 -9 -9 -8 0 -16 6 -19 13 -3 8 0 11 9 8 7 -3 18 3 24 14
7 14 7 19 -4 19 -8 0 -11 -7 -7 -16 5 -14 3 -14 -11 -2 -9 7 -14 18 -10 24 3
6 1 7 -6 3 -6 -4 -9 -12 -6 -17 4 -5 1 -9 -4 -9 -6 0 -11 6 -11 14 0 10 -7 13
-20 11 -11 -2 -18 0 -15 6 4 5 -1 12 -9 15 -9 3 -16 11 -16 17 0 5 9 2 20 -8
23 -21 27 -11 5 11 -8 9 -19 13 -24 9 -5 -3 -13 4 -16 16 -4 11 -9 18 -12 16
-2 -3 0 -15 7 -26 6 -12 7 -21 1 -21 -5 0 -12 7 -15 16 -4 10 -12 14 -22 10
-11 -4 -15 -2 -11 7 3 8 1 20 -5 28 -8 11 -9 10 -4 -3 3 -10 1 -18 -4 -18 -5
0 -7 -7 -4 -15 4 -8 1 -15 -4 -15 -6 0 -9 12 -6 27 4 23 3 25 -11 13 -18 -15
-19 -11 -4 27 11 31 2 25 -15 -9 -6 -12 -17 -23 -24 -24 -7 -1 -8 0 -2 3 15 7
1 23 -15 16 -8 -3 -15 -1 -15 5 0 11 18 11 35 0 6 -4 11 1 11 11 0 20 -27 21
-49 3 -7 -7 -17 -9 -21 -5 -4 4 -11 1 -16 -7 -7 -11 -8 -5 -5 18 2 18 -1 32
-7 32 -5 0 -8 -7 -5 -15 4 -8 1 -17 -5 -21 -7 -4 -8 -3 -4 4 4 7 3 12 -3 12
-5 0 -13 9 -16 21 -4 11 -9 18 -12 16 -2 -3 0 -14 6 -25 8 -15 7 -21 -4 -25
-10 -4 -12 -1 -9 11 5 14 3 13 -10 -2 -12 -15 -16 -16 -16 -5 0 12 -2 12 -10
-1 -6 -10 -10 -11 -10 -3 0 7 -3 12 -7 12 -21 -3 -33 2 -27 12 4 8 9 7 15 -2
6 -10 9 -10 9 -2 0 16 -17 26 -25 13 -4 -6 -11 -7 -17 -4 -7 4 -8 2 -4 -4 4
-7 3 -12 -3 -12 -5 0 -11 5 -13 11 -2 6 -22 12 -45 13 -23 1 -39 -2 -37 -6 3
-4 -2 -8 -11 -8 -9 0 -13 5 -10 10 3 6 1 10 -4 10 -6 0 -11 -4 -11 -10 0 -5
-4 -10 -10 -10 -5 0 -6 8 -3 18 4 10 -5 5 -20 -12 -20 -21 -27 -25 -27 -12 0
9 5 16 10 16 6 0 10 5 10 10 0 6 -8 5 -20 -2 -13 -9 -18 -19 -14 -33 3 -12 2
-15 -3 -9 -4 7 -20 10 -35 9 -16 -2 -31 2 -35 7 -4 7 -1 8 6 3 10 -6 11 -3 2
14 -14 25 -23 28 -14 4 4 -11 3 -14 -5 -9 -8 4 -10 2 -6 -7 3 -8 0 -18 -7 -23
-8 -4 -10 -3 -5 4 4 7 1 12 -9 12 -9 0 -14 -4 -10 -9 3 -5 1 -12 -4 -15 -5 -4
-8 1 -7 10 1 8 9 20 17 25 8 5 9 9 3 9 -12 0 -46 -34 -42 -41 2 -2 -1 -1 -6 3
-5 4 -4 14 4 23 7 8 8 15 2 15 -10 0 -26 -29 -24 -42 1 -4 -6 -4 -16 -1 -15 6
-16 5 -2 -13 14 -18 14 -18 -4 -4 -18 14 -19 13 -13 -3 4 -11 3 -16 -3 -12
-16 10 -11 33 8 39 10 4 19 12 19 20 0 15 -21 16 -34 1 -4 -4 -2 -5 5 -1 6 4
12 2 12 -3 0 -14 -23 -14 -37 0 -7 7 -13 7 -17 0 -4 -5 -13 -8 -21 -4 -9 3
-21 0 -29 -6 -15 -13 -27 -5 -19 15 3 8 0 14 -7 14 -6 0 -9 -4 -6 -8 9 -15
-13 -36 -38 -38 -14 0 -26 3 -26 8 0 4 -5 8 -11 8 -5 0 -8 -4 -4 -9 3 -5 -6
-18 -19 -28 -18 -15 -22 -23 -14 -36 16 -30 1 -18 -21 16 l-21 32 4 -27 c3
-16 0 -28 -6 -28 -5 0 -8 7 -4 15 3 8 1 15 -5 15 -6 0 -7 5 -3 12 5 7 3 8 -5
4 -7 -5 -10 -14 -7 -22 3 -9 0 -11 -11 -7 -12 5 -14 3 -8 -7 5 -9 4 -11 -3 -6
-7 4 -12 2 -12 -5 0 -7 -3 -9 -7 -6 -3 4 1 15 9 24 24 29 29 41 18 48 -6 4
-10 3 -9 -2 1 -4 1 -15 0 -23 -1 -13 -3 -13 -12 0 -9 13 -10 13 -6 -2 3 -9 -1
-19 -9 -22 -13 -5 -19 5 -15 27 0 4 -3 7 -9 7 -5 0 -10 -5 -10 -11 0 -8 -5 -8
-15 1 -12 10 -16 9 -21 -4 -3 -9 -1 -22 5 -29 8 -10 7 -14 -4 -14 -8 0 -12 4
-9 9 3 4 0 8 -6 8 -6 0 -8 5 -4 12 4 7 3 8 -4 4 -6 -4 -10 -21 -8 -39 4 -29 3
-30 -10 -12 -16 22 -35 26 -47 10 -5 -6 -7 -4 -4 5 2 8 9 14 15 13 7 -2 9 4 5
14 -4 11 -8 13 -11 5 -2 -7 -12 -12 -23 -12 -17 0 -24 11 -20 33 1 5 -3 6 -8
2 -6 -3 -7 -13 -4 -22 5 -12 3 -14 -7 -8 -8 5 -11 4 -7 -2 4 -6 0 -16 -8 -23
-13 -11 -14 -10 -9 6 6 16 5 17 -7 7 -17 -17 -37 -17 -21 -1 20 20 13 29 -8
11 -14 -12 -16 -20 -9 -29 7 -8 7 -14 -1 -19 -6 -4 -9 -1 -8 6 2 6 -3 14 -11
17 -8 2 -11 0 -8 -5 3 -5 0 -10 -7 -10 -7 0 -13 6 -13 13 0 7 3 13 6 12 26 -3
33 3 21 17 -7 8 -18 15 -24 14 -7 0 -6 -2 2 -6 19 -7 14 -19 -8 -20 -11 -1
-18 2 -15 7 3 4 -5 6 -17 2 -13 -3 -19 -1 -15 6 9 13 -17 10 -35 -6 -8 -6 -19
-8 -24 -4 -5 4 -6 3 -2 -2 4 -4 2 -14 -4 -20 -16 -17 -49 13 -35 32 5 7 7 15
3 19 -3 3 -6 1 -6 -6 0 -7 -4 -10 -9 -7 -12 8 -8 -13 8 -44 l13 -25 -21 23
c-24 24 -42 29 -39 10 2 -7 -4 -13 -12 -13 -8 0 -14 6 -12 13 1 6 -3 12 -9 12
-5 0 -7 4 -4 10 4 6 -1 7 -12 3 -16 -6 -17 -5 -3 13 14 18 14 18 -6 2 -23 -20
-39 -24 -28 -6 4 7 3 8 -5 4 -6 -4 -9 -10 -7 -14 2 -4 -7 -15 -20 -25 -17 -12
-24 -14 -22 -5 2 7 -4 12 -14 10 -9 -1 -20 3 -24 9 -4 8 -3 9 4 5 6 -3 16 2
22 13 7 14 7 22 0 26 -6 4 -10 3 -9 -2 4 -23 -3 -30 -28 -29 -16 0 -34 8 -41
16 -11 12 -11 11 -1 -9 10 -21 9 -23 -6 -18 -9 4 -19 7 -21 7 -3 0 -2 6 2 13
6 9 4 9 -8 -1 -12 -9 -18 -10 -23 -2 -5 8 -11 8 -21 -1 -17 -14 -19 2 -1 21 7
9 4 8 -8 -2 -11 -8 -28 -14 -38 -13 -11 2 -16 1 -13 -3 7 -6 30 -12 54 -14 8
-1 9 -5 3 -11 -5 -5 -15 -6 -23 -1 -20 13 -46 15 -53 4 -8 -13 -25 -13 -25 0
0 6 5 9 11 8 14 -4 21 30 8 38 -5 3 -8 0 -7 -8 2 -7 -2 -12 -9 -11 -6 1 -17
-4 -23 -12 -9 -11 -10 -15 -1 -15 7 0 9 -5 5 -11 -4 -8 -9 -7 -15 2 -4 7 -19
14 -33 16 -24 3 -31 -5 -27 -29 0 -5 -4 -8 -10 -8 -6 0 -9 7 -6 15 4 8 2 17
-3 20 -4 3 -11 -1 -13 -7 -4 -10 -6 -9 -6 1 -1 11 -4 11 -18 0 -14 -12 -16
-12 -8 0 6 11 4 13 -8 8 -10 -4 -23 -10 -31 -13 -9 -3 -20 3 -27 14 -10 16
-15 18 -26 7 -10 -10 -19 -11 -42 -2 -16 6 -28 15 -25 19 3 4 0 8 -5 8 -18 0
-12 -18 11 -34 12 -9 17 -16 11 -16 -7 0 -15 5 -19 11 -4 8 -9 7 -16 -2 -8
-11 -9 -10 -4 4 3 9 1 17 -5 17 -6 0 -8 4 -4 9 8 13 -12 24 -27 14 -17 -11
-30 -11 -50 -1 -10 5 -19 4 -23 -2 -5 -8 -12 -7 -23 2 -13 11 -14 11 -7 -1 6
-11 4 -13 -9 -8 -10 4 -23 4 -29 0 -7 -4 -15 -8 -19 -9 -5 -1 -9 -2 -10 -4
-10 -7 -37 -7 -32 1 3 5 0 9 -7 9 -9 0 -9 3 0 14 9 11 9 16 0 22 -7 4 -9 3 -5
-4 3 -6 2 -13 -3 -17 -6 -3 -8 -13 -5 -23 5 -14 4 -15 -5 -2 -6 8 -8 23 -5 33
5 17 4 17 -15 -2 -12 -12 -27 -21 -35 -21 -8 0 -17 -6 -20 -12 -3 -7 -4 -4 -1
7 6 26 -29 73 -40 55 -6 -9 -4 -11 5 -5 9 6 10 2 5 -15 -6 -19 -4 -22 9 -17
10 4 15 3 11 -3 -6 -10 -40 -8 -51 3 -10 10 -26 9 -20 -1 3 -5 -1 -9 -9 -9 -8
0 -13 3 -11 6 2 3 -5 14 -14 24 -13 14 -20 15 -26 6 -4 -8 -3 -10 4 -5 18 11
14 -3 -5 -22 -16 -16 -16 -16 -10 1 4 11 1 20 -8 23 -8 4 -12 11 -8 18 4 7 1
7 -9 -1 -8 -7 -18 -10 -21 -6 -4 3 1 13 11 21 15 12 14 12 -8 0 -30 -16 -38
-16 -68 0 -12 7 -22 9 -21 5 4 -21 -2 -32 -15 -27 -7 3 -20 -2 -29 -11 -14
-14 -16 -13 -14 4 0 10 6 17 12 15 5 -2 17 0 25 6 12 8 13 11 2 22 -11 11 -13
10 -10 -1 2 -7 -3 -16 -9 -18 -8 -3 -13 3 -14 14 0 15 -2 14 -9 -4 -5 -13 -13
-23 -17 -24 -4 0 -17 -2 -27 -4 -30 -6 -36 3 -26 33 9 23 8 25 -3 10 -8 -10
-18 -13 -26 -9 -17 11 -51 2 -51 -13 0 -6 -5 -3 -11 7 -5 9 -15 17 -20 17 -6
0 -8 -4 -5 -9 4 -5 -4 -7 -16 -3 -16 4 -19 2 -13 -9 5 -8 4 -10 0 -6 -17 15
-14 38 4 32 19 -6 49 20 37 32 -3 3 -6 1 -6 -6 0 -7 -5 -9 -12 -5 -7 5 -8 3
-3 -6 6 -10 4 -12 -9 -7 -10 4 -20 7 -22 7 -2 0 -4 5 -4 11 0 5 5 7 12 3 7 -4
8 -3 4 5 -10 15 -29 3 -22 -15 5 -13 -12 -19 -38 -15 -5 1 -5 -6 -2 -16 4 -9
3 -14 -1 -9 -4 4 -8 16 -8 27 0 10 -4 19 -8 18 -4 0 -16 8 -25 19 -9 10 -13
12 -9 5 5 -6 4 -20 -1 -29 -6 -11 -11 -13 -16 -5 -4 6 -12 11 -18 11 -6 0 -5
-7 3 -17 12 -16 12 -17 -2 -6 -9 7 -19 9 -24 5 -4 -4 -2 3 6 15 10 17 16 19
26 11 8 -6 16 -8 19 -5 3 3 -3 10 -15 16 -13 7 -22 8 -26 1 -4 -7 -14 -7 -28
1 -21 10 -21 9 -3 -5 18 -14 18 -15 -2 -13 -12 0 -23 9 -25 19 -3 10 -11 18
-19 18 -10 0 -9 -3 2 -10 13 -8 13 -11 1 -22 -8 -7 -11 -8 -8 -2 4 7 0 15 -9
18 -8 3 -13 9 -10 14 2 4 -4 8 -14 9 -11 1 -22 -2 -25 -8 -3 -5 0 -6 8 -3 19
7 32 -12 16 -22 -8 -4 -9 -3 -5 4 11 19 -5 14 -20 -5 -13 -17 -14 -17 -7 2 3
11 3 17 -2 13 -4 -4 -15 -2 -23 5 -13 10 -15 9 -9 -5 4 -10 2 -18 -4 -18 -6 0
-9 9 -6 19 2 10 0 25 -5 32 -8 11 -9 10 -4 -3 3 -10 2 -18 -2 -19 -4 0 -18 -2
-32 -5 -18 -3 -21 -2 -10 5 8 5 18 7 22 5 4 -3 8 -1 8 4 0 5 -24 9 -52 8 -45
-1 -53 2 -52 16 1 10 -3 15 -8 12 -5 -4 -7 -15 -5 -26 4 -15 3 -17 -8 -8 -8 7
-19 9 -24 6 -5 -4 -17 4 -25 16 -9 12 -16 18 -16 13 0 -6 -8 -15 -18 -22 -15
-9 -19 -8 -19 3 0 7 4 11 8 8 4 -2 11 1 15 7 4 8 3 9 -4 5 -7 -4 -12 -2 -12 5
0 7 -6 4 -14 -6 -8 -11 -13 -22 -11 -26 2 -3 -2 -6 -10 -6 -10 0 -12 4 -5 12
5 6 5 16 -2 25 -8 12 -9 11 -4 -4 5 -14 2 -17 -9 -12 -9 3 -13 2 -10 -4 3 -6
2 -10 -2 -10 -5 0 -16 12 -25 28 -10 15 -18 21 -18 14z m18 -33 c2 -9 0 -10
-5 -4 -11 14 -39 12 -36 -3 2 -6 -4 -9 -12 -5 -14 5 -13 7 2 18 21 16 46 13
51 -6z m124 -21 c-7 -7 -12 -8 -12 -2 0 14 12 26 19 19 2 -3 -1 -11 -7 -17z
m128 -18 c0 -5 -2 -10 -4 -10 -3 0 -8 5 -11 10 -3 6 -1 10 4 10 6 0 11 -4 11
-10z m173 -35 c-3 -9 -8 -14 -10 -11 -3 3 -2 9 2 15 9 16 15 13 8 -4z m-860
-15 c3 -11 1 -18 -4 -14 -5 3 -9 12 -9 20 0 20 7 17 13 -6z m1041 8 c-3 -4 -9
-8 -15 -8 -5 0 -9 4 -9 8 0 5 7 9 15 9 8 0 12 -4 9 -9z m-21 -33 c-3 -9 -8
-14 -10 -11 -3 3 -2 9 2 15 9 16 15 13 8 -4z m200 -10 c-3 -9 -8 -14 -10 -11
-3 3 -2 9 2 15 9 16 15 13 8 -4z m2831 -6 c-3 -5 -10 -7 -15 -3 -5 3 -7 10 -3
15 3 5 10 7 15 3 5 -3 7 -10 3 -15z m-2812 -11 c-7 -7 -12 -8 -12 -2 0 14 12
26 19 19 2 -3 -1 -11 -7 -17z m2725 7 c5 -4 2 -5 -4 -1 -8 4 -13 2 -13 -5 0
-8 -3 -9 -13 0 -8 6 -18 7 -22 3 -5 -4 -5 -2 -2 4 7 12 43 12 54 -1z m-2528
-17 c13 -22 13 -22 -4 -8 -17 14 -18 13 -12 -3 4 -11 3 -16 -3 -12 -12 7 -14
45 -2 45 4 0 13 -10 21 -22z m2197 -15 c-3 -4 -6 -1 -6 5 0 7 -5 12 -11 12 -5
0 -7 -4 -4 -10 3 -5 1 -10 -4 -10 -6 0 -11 5 -11 10 0 6 -4 10 -10 10 -5 0 -9
-3 -7 -7 1 -5 -2 -9 -8 -10 -5 -2 -10 3 -10 10 0 6 10 12 22 12 12 0 25 4 29
8 5 4 12 0 17 -8 5 -9 6 -19 3 -22z m-3723 6 c-8 -8 -13 -7 -18 2 -5 8 -4 10
3 5 7 -4 12 -2 12 5 0 7 3 9 7 6 4 -4 2 -12 -4 -18z m1575 11 c1 -2 7 -3 12
-4 6 0 10 -4 10 -8 0 -5 0 -12 0 -18 0 -5 -4 -10 -10 -10 -5 0 -9 6 -7 13 1 6
-5 11 -14 9 -9 -1 -19 4 -22 12 -4 9 0 13 11 11 9 -2 18 -4 20 -5z m2059 -22
c0 -13 -1 -17 -4 -10 -3 6 -9 12 -14 12 -6 0 -8 -4 -4 -9 3 -6 -3 -8 -15 -6
-11 2 -22 0 -25 -5 -3 -5 -12 -7 -20 -3 -8 3 -15 -1 -15 -8 0 -7 -3 -10 -6 -7
-3 4 -1 15 5 26 7 14 19 19 41 17 17 -1 33 1 36 6 10 16 20 9 21 -13z m-1977
-12 c0 -2 -8 -10 -17 -17 -16 -13 -17 -12 -4 4 13 16 21 21 21 13z m371 -10
c5 3 9 0 9 -5 0 -13 -27 -15 -34 -2 -3 4 -2 11 2 15 3 4 8 2 10 -3 2 -6 8 -9
13 -5z m66 -6 c1 -11 -3 -23 -9 -26 -7 -5 -9 -1 -5 9 8 22 -9 22 -22 0 -9 -16
-10 -16 -8 4 0 12 4 20 8 17 4 -2 10 0 14 6 10 16 21 12 22 -10z m1265 5 c2 3
5 -1 5 -9 0 -8 -8 -11 -19 -8 -10 2 -18 11 -18 19 0 12 3 13 13 4 8 -6 16 -9
19 -6z m-1527 -4 c3 -5 2 -12 -3 -15 -5 -3 -9 1 -9 9 0 17 3 19 12 6z m125 5
c0 -3 -4 -8 -10 -11 -5 -3 -10 -1 -10 4 0 6 5 11 10 11 6 0 10 -2 10 -4z m40
-28 c0 -19 -16 -5 -17 14 -2 18 0 20 7 8 5 -8 10 -18 10 -22z m-2093 0 c0 -13
-1 -17 -4 -10 -4 9 -8 10 -18 2 -10 -8 -15 -8 -21 1 -4 7 -3 9 3 6 6 -4 16 0
23 8 16 19 16 19 17 -7z m2685 7 c3 0 10 -4 15 -9 4 -5 3 -6 -4 -3 -6 4 -18 1
-26 -8 -13 -13 -15 -11 -13 9 0 14 5 21 11 18 6 -4 13 -7 17 -7z m412 -7 c-4
-6 1 -8 14 -4 23 8 39 -8 21 -20 -8 -4 -9 -3 -5 4 4 7 2 12 -3 12 -6 0 -11 -4
-11 -8 0 -5 -7 -9 -15 -9 -8 0 -11 5 -8 10 4 6 0 8 -11 4 -14 -6 -15 -3 -6 14
6 11 15 17 21 14 5 -4 6 -11 3 -17z m-324 -22 c0 -6 -5 -4 -10 4 -7 11 -10 11
-10 2 0 -8 -5 -10 -12 -6 -9 6 -9 9 0 12 7 2 9 9 5 15 -4 7 1 6 10 -2 9 -7 17
-19 17 -25z m140 12 c0 -6 -8 -4 -17 3 -15 12 -16 12 -10 -3 3 -10 2 -20 -2
-22 -6 -4 -8 31 -2 41 3 7 31 -11 31 -19z m383 -3 c-10 -8 -20 -11 -23 -8 -3
3 1 8 8 10 6 3 10 9 7 14 -4 5 1 6 10 3 14 -6 14 -8 -2 -19z m-908 -13 c-3 -3
-11 0 -18 7 -9 10 -8 11 6 5 10 -3 15 -9 12 -12z m-2419 -22 c0 -12 -4 -16 -9
-11 -5 5 -6 14 -3 20 10 15 12 14 12 -9z m4694 16 c0 -2 -7 -7 -16 -10 -8 -3
-12 -2 -9 4 6 10 25 14 25 6z m-4817 -140 c4 -10 1 -13 -8 -9 -8 3 -12 9 -9
14 7 12 11 11 17 -5z m-42 -99 c-10 -9 -11 -8 -5 6 3 10 9 15 12 12 3 -3 0
-11 -7 -18z m5214 -127 c3 -6 -1 -7 -9 -4 -18 7 -21 14 -7 14 6 0 13 -4 16
-10z m-5285 -14 c0 -3 -4 -8 -10 -11 -5 -3 -10 -1 -10 4 0 6 5 11 10 11 6 0
10 -2 10 -4z m5350 -17 c0 -4 -7 -6 -15 -3 -8 4 -15 10 -15 15 0 4 7 6 15 3 8
-4 15 -10 15 -15z m-5420 -89 c0 -5 -5 -10 -11 -10 -5 0 -7 5 -4 10 3 6 8 10
11 10 2 0 4 -4 4 -10z m5488 -83 c-1 -2 3 -11 11 -20 17 -22 8 -22 -13 -1 -9
8 -13 20 -10 25 3 6 8 8 11 5 2 -2 3 -6 1 -9z m102 -261 c0 -3 -4 -8 -10 -11
-5 -3 -10 -1 -10 4 0 6 5 11 10 11 6 0 10 -2 10 -4z m-5685 -36 c4 -6 1 -9 -7
-8 -8 2 -12 -6 -10 -22 2 -21 1 -22 -8 -8 -10 17 -4 48 10 48 5 0 12 -5 15
-10z m5686 -3 c-1 -12 -15 -9 -19 4 -3 6 1 10 8 8 6 -3 11 -8 11 -12z m-5701
-102 c0 -7 -30 -13 -34 -7 -3 4 4 9 15 9 10 1 19 0 19 -2z m5704 -13 c3 -5 -1
-9 -9 -9 -8 0 -12 4 -9 9 3 4 7 8 9 8 2 0 6 -4 9 -8z m-5709 -22 c3 -5 1 -10
-4 -10 -6 0 -11 5 -11 10 0 6 2 10 4 10 3 0 8 -4 11 -10z m5770 -80 c3 -5 1
-10 -4 -10 -6 0 -11 5 -11 10 0 6 2 10 4 10 3 0 8 -4 11 -10z m17 -62 c-8 -8
-8 -15 -1 -24 12 -15 4 -34 -14 -33 -9 0 -9 2 1 6 6 2 12 9 12 14 0 6 -6 7
-12 3 -7 -4 -10 -4 -6 1 4 4 2 15 -5 23 -8 11 -8 14 0 9 6 -4 14 -3 18 3 3 5
9 10 13 10 3 0 1 -5 -6 -12z m-5811 -75 c-12 -20 -14 -14 -5 12 4 9 9 14 11
11 3 -2 0 -13 -6 -23z m-27 -109 c7 -19 0 -34 -17 -34 -8 0 -7 4 2 9 12 8 12
12 2 25 -8 9 -9 16 -3 16 5 0 13 -7 16 -16z m5916 -128 c0 -2 -7 -6 -15 -10
-8 -3 -15 -1 -15 4 0 6 7 10 15 10 8 0 15 -2 15 -4z m58 -341 c-3 -3 -9 2 -12
12 -6 14 -5 15 5 6 7 -7 10 -15 7 -18z m-6003 -55 c-3 -5 -14 -10 -23 -9 -14
0 -13 2 3 9 27 11 27 11 20 0z m-15 -100 c0 -5 -5 -10 -11 -10 -5 0 -7 5 -4
10 3 6 8 10 11 10 2 0 4 -4 4 -10z m10 -24 c0 -2 -8 -10 -17 -17 -16 -13 -17
-12 -4 4 13 16 21 21 21 13z m-3 -128 c-3 -8 -6 -5 -6 6 -1 11 2 17 5 13 3 -3
4 -12 1 -19z m-21 -280 c4 -7 3 -8 -4 -4 -7 4 -12 2 -12 -3 0 -6 -4 -11 -10
-11 -5 0 -7 7 -4 15 7 18 20 19 30 3z m9 -98 c3 -5 1 -10 -4 -10 -6 0 -11 5
-11 10 0 6 2 10 4 10 3 0 8 -4 11 -10z m0 -160 c3 -5 1 -10 -4 -10 -6 0 -11 5
-11 10 0 6 2 10 4 10 3 0 8 -4 11 -10z m6202 -55 c0 -8 -4 -12 -9 -9 -5 3 -6
10 -3 15 9 13 12 11 12 -6z m-6217 -10 c0 -2 -9 -3 -19 -2 -11 0 -18 5 -15 9
4 6 34 0 34 -7z m0 -59 c0 -12 -5 -7 -19 24 -11 24 -11 24 3 6 9 -11 16 -24
16 -30z m-20 -6 c8 -15 8 -18 -3 -14 -8 3 -14 11 -14 19 0 20 4 19 17 -5z m17
-100 c-1 -21 -10 -18 -13 5 -1 8 2 15 6 15 5 0 8 -9 7 -20z m6258 -20 c3 -6
-1 -7 -9 -4 -18 7 -21 14 -7 14 6 0 13 -4 16 -10z m-6255 -94 c-7 -7 -13 -7
-20 0 -6 6 -3 10 10 10 13 0 16 -4 10 -10z m6265 -16 c-1 -11 -5 -23 -10 -27
-4 -5 -5 -2 -1 5 4 7 0 15 -10 19 -16 6 -16 7 2 14 10 4 19 8 20 8 0 1 0 -8
-1 -19z m-25 -20 c0 -5 -2 -10 -4 -10 -3 0 -8 5 -11 10 -3 6 -1 10 4 10 6 0
11 -4 11 -10z m18 -32 c8 -8 8 -17 1 -30 -7 -13 -7 -23 1 -33 8 -9 8 -15 0
-20 -6 -3 -7 -12 -4 -18 4 -8 2 -7 -7 1 -12 11 -12 14 1 22 10 7 11 10 3 10
-16 0 -17 36 -1 46 7 5 5 11 -7 21 -11 7 -14 13 -9 13 6 0 15 -5 22 -12z
m-6287 -26 c-8 -3 -7 -8 6 -18 13 -11 14 -14 3 -12 -18 3 -40 30 -34 40 3 4
12 4 21 1 12 -5 13 -8 4 -11z m6264 -82 c3 -5 1 -10 -4 -10 -6 0 -11 5 -11 10
0 6 2 10 4 10 3 0 8 -4 11 -10z m18 -53 c-3 -12 -5 -30 -4 -41 0 -36 -12 -6
-13 33 -1 27 2 37 10 34 7 -3 10 -14 7 -26z m-6284 -63 c4 3 8 -1 8 -9 0 -8
-4 -12 -9 -9 -4 3 -8 -2 -8 -11 0 -10 5 -13 12 -9 7 4 8 3 4 -4 -5 -9 -13 -9
-27 -2 -22 12 -23 14 -7 43 7 14 13 17 16 9 2 -6 7 -10 11 -8z m6281 -19 c0
-8 -4 -15 -10 -15 -5 0 -7 7 -4 15 4 8 8 15 10 15 2 0 4 -7 4 -15z m-30 -105
c0 -5 -5 -10 -11 -10 -5 0 -7 5 -4 10 3 6 8 10 11 10 2 0 4 -4 4 -10z m-6240
-14 c0 -3 -4 -8 -10 -11 -5 -3 -10 -1 -10 4 0 6 5 11 10 11 6 0 10 -2 10 -4z
m6250 -21 c-7 -8 -18 -15 -24 -14 -7 0 -6 2 2 6 6 2 9 10 6 15 -4 7 -2 8 4 4
7 -4 12 -2 12 5 0 7 3 9 6 6 4 -4 1 -13 -6 -22z m-6257 -198 c3 -8 -1 -14 -8
-14 -7 0 -11 6 -8 14 3 7 6 13 8 13 2 0 5 -6 8 -13z m2 -37 c-3 -5 -12 -10
-18 -10 -7 0 -6 4 3 10 19 12 23 12 15 0z m-5 -26 c0 -8 -19 -13 -24 -6 -3 5
1 9 9 9 8 0 15 -2 15 -3z m-21 -196 c13 -20 12 -22 -1 -11 -8 7 -17 11 -20 8
-2 -3 -5 2 -5 10 0 21 10 19 26 -7z m6181 -102 c0 -3 -4 -8 -10 -11 -5 -3 -10
-1 -10 4 0 6 5 11 10 11 6 0 10 -2 10 -4z m814 -341 c-7 -17 -34 -21 -34 -4 0
5 4 8 9 4 5 -3 12 -1 16 5 9 15 15 12 9 -5z m154 4 c-2 -3 4 -14 12 -24 14
-17 14 -17 -7 -4 -23 14 -32 44 -12 37 6 -2 9 -6 7 -9z m52 -11 c0 -4 -7 -8
-15 -8 -8 0 -15 4 -15 8 0 5 7 9 15 9 8 0 15 -4 15 -9z m-390 -13 c7 -9 8 -15
2 -15 -5 0 -12 7 -16 15 -3 8 -4 15 -2 15 2 0 9 -7 16 -15z m137 -15 c-1 -21
-10 -18 -13 5 -1 8 2 15 6 15 5 0 8 -9 7 -20z m-7006 -18 c-8 -3 -7 -8 6 -18
17 -13 17 -14 -2 -8 -16 6 -18 5 -7 -7 15 -17 16 -32 0 -27 -7 3 -13 21 -13
40 -1 28 2 35 14 30 11 -4 11 -7 2 -10z m6766 -2 c-1 -11 -5 -20 -9 -20 -10 0
-10 4 -2 24 8 22 13 20 11 -4z m673 -4 c0 -2 -7 -7 -16 -10 -8 -3 -12 -2 -9 4
6 10 25 14 25 6z m166 -34 c5 1 18 -3 29 -9 11 -6 23 -11 28 -12 4 0 15 -5 25
-10 16 -10 16 -10 0 -11 -10 0 -18 4 -18 8 0 5 -6 9 -12 10 -23 1 -56 10 -75
20 -12 7 -25 7 -38 0 -13 -6 -11 -3 5 11 22 18 26 19 36 5 7 -8 16 -14 20 -12z
m-1191 -72 c3 -6 -1 -7 -9 -4 -18 7 -21 14 -7 14 6 0 13 -4 16 -10z m-6414 -7
c-11 -5 -11 -7 0 -14 11 -7 10 -9 -3 -9 -18 0 -23 11 -11 23 3 4 11 7 17 6 6
0 5 -3 -3 -6z m6450 -10 c13 -16 12 -17 -3 -4 -10 7 -18 15 -18 17 0 8 8 3 21
-13z m-101 1 c0 -8 -19 -13 -24 -6 -3 5 1 9 9 9 8 0 15 -2 15 -3z m-100 -64
c0 -5 -2 -10 -4 -10 -3 0 -8 5 -11 10 -3 6 -1 10 4 10 6 0 11 -4 11 -10z
m1600 -10 c0 -5 -2 -10 -4 -10 -3 0 -8 5 -11 10 -3 6 -1 10 4 10 6 0 11 -4 11
-10z m-7855 -69 c17 -11 18 -12 1 -7 -14 5 -17 2 -12 -10 4 -9 1 -14 -5 -12
-7 2 -13 17 -15 33 -2 17 0 25 4 19 4 -6 16 -16 27 -23z m1 -46 c-11 -8 -16
-15 -12 -15 5 0 3 -6 -3 -14 -7 -9 -8 -17 -2 -20 5 -3 11 -1 13 6 3 7 7 5 11
-6 4 -9 3 -15 -2 -11 -5 3 -13 0 -17 -6 -3 -6 0 -15 7 -20 10 -6 10 -9 2 -9
-20 0 -35 42 -23 65 1 3 3 10 4 15 0 6 8 15 16 20 23 15 27 11 6 -5z m8063
-133 c7 -14 6 -19 -4 -19 -7 0 -11 7 -7 15 4 11 1 13 -8 7 -9 -5 -11 -4 -6 3
10 16 14 15 25 -6z m-8054 -441 c3 -5 2 -12 -3 -15 -5 -3 -9 1 -9 9 0 17 3 19
12 6z m8129 -99 c3 -5 -1 -9 -9 -9 -8 0 -12 4 -9 9 3 4 7 8 9 8 2 0 6 -4 9 -8z
m6 -156 c0 -2 -7 -7 -16 -10 -8 -3 -12 -2 -9 4 6 10 25 14 25 6z m-8140 -122
c0 -8 -19 -13 -24 -6 -3 5 1 9 9 9 8 0 15 -2 15 -3z m8110 -29 c-5 -6 -7 -15
-3 -18 10 -10 -10 -8 -27 3 -13 8 -13 10 2 10 12 0 16 6 13 21 -4 17 -2 19 11
9 10 -9 11 -16 4 -25z m-20 -55 c0 -5 -4 -10 -10 -10 -5 0 -10 5 -10 10 0 6 5
10 10 10 6 0 10 -4 10 -10z m-107 -234 c-4 -6 -8 -5 -11 2 -2 7 -7 10 -11 8
-4 -3 -8 1 -8 8 0 11 4 12 18 3 10 -6 15 -16 12 -21z m-7993 -6 c0 -5 -7 -10
-16 -10 -8 0 -12 5 -9 10 3 6 10 10 16 10 5 0 9 -4 9 -10z m7960 -24 c0 -3 -4
-8 -10 -11 -5 -3 -10 -1 -10 4 0 6 5 11 10 11 6 0 10 -2 10 -4z m-7953 -61 c0
-8 -4 -12 -9 -9 -4 3 -8 9 -8 15 0 5 4 9 8 9 5 0 9 -7 9 -15z m7850 -61 c-3
-3 -12 -4 -19 -1 -8 3 -5 6 6 6 11 1 17 -2 13 -5z m-7821 -169 c1 -9 1 -15 -1
-13 -2 1 -3 6 -2 10 1 4 -7 14 -18 23 -18 15 -19 16 -1 7 11 -5 21 -17 22 -27z
m7594 -20 c5 3 12 0 16 -7 4 -7 4 -10 -1 -6 -4 4 -14 3 -21 -3 -7 -5 -25 -12
-41 -15 -20 -3 -24 -2 -13 5 8 5 17 8 21 5 4 -2 11 6 15 18 4 13 9 18 11 10 3
-6 9 -10 13 -7z m-7605 -4 c7 -12 -12 -24 -25 -16 -11 7 -4 25 10 25 5 0 11
-4 15 -9z m7466 -68 c13 -16 12 -17 -3 -4 -10 7 -18 15 -18 17 0 8 8 3 21 -13z
m-31 -7 c0 -3 -4 -8 -10 -11 -5 -3 -10 -1 -10 4 0 6 5 11 10 11 6 0 10 -2 10
-4z m-7420 -31 c0 -8 -4 -15 -8 -15 -5 0 -9 7 -9 15 0 8 4 15 9 15 4 0 8 -7 8
-15z m7225 -85 c3 -5 1 -10 -4 -10 -6 0 -11 5 -11 10 0 6 2 10 4 10 3 0 8 -4
11 -10z m-335 -75 c5 3 11 1 15 -4 8 -14 -36 -4 -49 10 -8 9 -8 10 2 5 7 -4
12 -2 13 6 1 7 3 5 6 -5 2 -9 8 -15 13 -12z m-435 5 c3 -5 1 -10 -4 -10 -6 0
-11 5 -11 10 0 6 2 10 4 10 3 0 8 -4 11 -10z m385 0 c0 -5 -2 -10 -4 -10 -3 0
-8 5 -11 10 -3 6 -1 10 4 10 6 0 11 -4 11 -10z m-190 -16 c0 -8 -19 -13 -24
-6 -3 5 1 9 9 9 8 0 15 -2 15 -3z m-6597 -75 c-6 -6 -9 -19 -6 -28 4 -13 3
-14 -5 -1 -10 14 1 40 16 40 3 0 1 -5 -5 -11z m20 -41 c-11 -12 -12 -18 -4
-18 14 0 11 -20 -3 -23 -12 -3 -16 32 -5 39 5 3 7 9 5 13 -3 4 1 8 9 8 13 0
12 -4 -2 -19z m6071 10 c-5 -8 -2 -9 10 -5 13 5 10 -2 -9 -27 -14 -18 -23 -35
-20 -37 2 -3 -7 -18 -20 -34 -17 -22 -23 -25 -21 -12 1 10 7 22 13 25 5 4 9
15 7 25 -1 10 2 14 9 10 6 -4 8 0 4 10 -4 10 -2 16 6 14 7 -1 13 5 13 13 3 26
4 30 10 30 3 0 2 -5 -2 -12z m-6024 -103 c0 -2 -9 -3 -19 -2 -11 0 -18 5 -15
9 4 6 34 0 34 -7z m8 -70 c-3 -3 -9 2 -12 12 -6 14 -5 15 5 6 7 -7 10 -15 7
-18z m46 -63 c3 -5 -1 -9 -9 -9 -8 0 -12 4 -9 9 3 4 7 8 9 8 2 0 6 -4 9 -8z
m16 -66 c0 -2 -7 -7 -16 -10 -8 -3 -12 -2 -9 4 6 10 25 14 25 6z m0 -26 c-8
-5 -19 -10 -25 -10 -5 0 -3 5 5 10 8 5 20 10 25 10 6 0 3 -5 -5 -10z m5741
-73 c-10 -9 -11 -8 -5 6 3 10 9 15 12 12 3 -3 0 -11 -7 -18z m-17 -86 c-2 -3
-12 3 -22 13 -16 17 -16 18 5 5 12 -7 20 -15 17 -18z m-5640 4 c-4 -8 -8 -15
-10 -15 -2 0 -4 7 -4 15 0 8 4 15 10 15 5 0 7 -7 4 -15z m5579 -110 c-3 -9 -8
-14 -10 -11 -3 3 -2 9 2 15 9 16 15 13 8 -4z m-33 -189 c-14 -14 -22 -2 -14
18 5 14 9 15 15 4 4 -7 4 -17 -1 -22z m-5360 -10 c0 -3 -4 -8 -10 -11 -5 -3
-10 -1 -10 4 0 6 5 11 10 11 6 0 10 -2 10 -4z m38 -85 c0 -3 0 -13 1 -21 1
-13 3 -13 12 0 9 13 10 12 5 -2 -3 -10 2 -22 12 -27 9 -6 13 -10 7 -11 -15 0
-29 12 -47 41 -13 20 -13 26 -3 26 8 0 14 -3 13 -6z m5274 -53 c-8 -8 -9 -4
-5 13 4 13 8 18 11 10 2 -7 -1 -18 -6 -23z m24 -25 c-3 -20 -33 -27 -33 -7 0
7 4 11 9 8 4 -3 8 0 8 5 0 6 4 11 9 11 5 0 8 -8 7 -17z m-5179 -87 c2 -2 0 -7
-6 -11 -6 -3 -11 -1 -11 5 0 6 -4 9 -9 5 -5 -3 -12 -1 -16 4 -5 9 33 7 42 -3z
m23 -21 c0 -2 -9 -9 -19 -15 -14 -7 -22 -7 -27 2 -4 6 -3 8 2 5 6 -3 16 -2 24
4 17 10 20 11 20 4z m5100 -53 c0 -5 -7 -9 -15 -9 -8 0 -12 4 -9 9 3 4 9 8 15
8 5 0 9 -4 9 -8z m-4 -31 c12 10 13 9 8 -5 -7 -18 -26 -17 -30 2 -1 7 0 8 3 2
3 -8 9 -7 19 1z m-4 -38 c-6 -2 -10 -8 -8 -12 3 -4 -5 -8 -16 -8 -20 -2 -20
-1 -2 12 11 8 24 14 29 14 6 0 4 -3 -3 -6z m-4956 -109 c1 -9 0 -13 -4 -10 -3
4 -7 14 -8 22 -1 9 0 13 4 10 3 -4 7 -14 8 -22z m4904 22 c0 -3 -4 -8 -10 -11
-5 -3 -10 -1 -10 4 0 6 5 11 10 11 6 0 10 -2 10 -4z m-4900 -58 c0 -6 -6 -5
-15 2 -8 7 -15 14 -15 16 0 2 7 1 15 -2 8 -4 15 -11 15 -16z m4835 -177 c-6
-5 -25 10 -25 20 0 5 6 4 14 -3 8 -7 12 -15 11 -17z m-20 -11 c3 -5 1 -10 -4
-10 -6 0 -11 5 -11 10 0 6 2 10 4 10 3 0 8 -4 11 -10z m-11 -86 c3 -8 2 -12
-4 -9 -6 3 -10 10 -10 16 0 14 7 11 14 -7z m-44 -14 c0 -5 -5 -10 -11 -10 -5
0 -7 5 -4 10 3 6 8 10 11 10 2 0 4 -4 4 -10z m-4500 -55 c5 3 12 1 15 -5 4 -6
3 -10 -2 -9 -4 1 -15 1 -23 0 -13 -1 -13 -2 0 -12 10 -7 11 -9 2 -7 -8 2 -12
7 -10 10 2 4 -6 14 -17 23 -19 16 -19 16 3 5 12 -6 27 -8 32 -5z m4475 -45
c-3 -5 -12 -10 -18 -10 -7 0 -6 4 3 10 19 12 23 12 15 0z m-4471 -8 c3 -5 -1
-9 -9 -9 -8 0 -12 4 -9 9 3 4 7 8 9 8 2 0 6 -4 9 -8z m4464 -29 c-6 -7 -7 -13
-3 -13 5 0 1 -8 -8 -18 -10 -10 -14 -22 -10 -26 4 -4 -1 -4 -11 0 -14 5 -15 9
-4 15 7 5 9 9 4 9 -5 0 -3 7 4 15 6 8 9 18 7 22 -3 5 3 9 13 9 14 0 16 -3 8
-13z m-90 -227 c14 5 13 2 -2 -10 -11 -9 -25 -16 -30 -15 -6 0 -6 3 1 5 7 3
11 11 9 17 -1 7 -1 9 1 5 2 -4 12 -5 21 -2z m-4083 -125 c-3 -6 3 -14 12 -20
10 -6 13 -11 7 -11 -15 0 -36 25 -27 33 10 10 15 8 8 -2z m4005 -31 c0 -5 -5
-10 -11 -10 -5 0 -7 5 -4 10 3 6 8 10 11 10 2 0 4 -4 4 -10z m-3925 -40 c3 -5
1 -10 -4 -10 -6 0 -11 5 -11 10 0 6 2 10 4 10 3 0 8 -4 11 -10z m5 -34 c-7 -7
-13 -7 -20 0 -6 6 -3 10 10 10 13 0 16 -4 10 -10z m35 -6 c-3 -5 -12 -10 -18
-10 -7 0 -6 4 3 10 19 12 23 12 15 0z m65 -86 c0 -8 -19 -13 -24 -6 -3 5 1 9
9 9 8 0 15 -2 15 -3z m3760 -9 c0 -8 -4 -15 -10 -15 -5 0 -7 7 -4 15 4 8 8 15
10 15 2 0 4 -7 4 -15z m-3734 -41 c2 -14 0 -14 -17 1 -10 10 -16 22 -13 27 8
12 27 -6 30 -28z m3740 4 c-9 -5 -13 -14 -10 -20 4 -7 2 -8 -5 -4 -6 4 -9 11
-6 16 3 5 -3 10 -12 13 -10 2 -3 4 15 4 26 0 30 -2 18 -9z m-55 -71 c-10 -9
-11 -8 -5 6 3 10 9 15 12 12 3 -3 0 -11 -7 -18z m-30 -137 c-13 -11 -28 -20
-35 -19 -6 0 -1 5 12 11 12 6 22 15 22 20 0 4 6 8 13 8 6 -1 1 -10 -12 -20z
m-3381 0 c0 -5 -4 -10 -10 -10 -5 0 -10 5 -10 10 0 6 5 10 10 10 6 0 10 -4 10
-10z m3350 -45 c7 -9 8 -15 2 -15 -5 0 -12 7 -16 15 -3 8 -4 15 -2 15 2 0 9
-7 16 -15z m-3025 -75 c3 -6 -1 -7 -9 -4 -18 7 -21 14 -7 14 6 0 13 -4 16 -10z
m350 -20 c3 -5 1 -10 -4 -10 -6 0 -11 5 -11 10 0 6 2 10 4 10 3 0 8 -4 11 -10z
m-21 -18 c3 -5 -1 -9 -9 -9 -8 0 -15 4 -15 9 0 4 4 8 9 8 6 0 12 -4 15 -8z
m60 -4 c-7 -11 9 -10 24 2 9 7 9 7 2 -2 -6 -8 -6 -16 2 -25 10 -12 7 -12 -15
-2 -29 13 -43 36 -21 36 7 0 11 -4 8 -9z m211 -78 c3 -6 -1 -7 -9 -4 -18 7
-21 14 -7 14 6 0 13 -4 16 -10z m2240 -130 c-3 -5 -12 -10 -18 -10 -7 0 -6 4
3 10 19 12 23 12 15 0z m-1950 -28 c-2 -9 -4 -19 -4 -21 -1 -2 -8 2 -16 9 -12
10 -13 16 -4 26 14 17 28 9 24 -14z m232 -95 c0 -8 -6 -14 -14 -14 -9 0 -10 4
-2 14 6 7 12 13 14 13 1 0 2 -6 2 -13z m1532 -39 c11 -15 10 -17 -7 -15 -13 1
-18 7 -14 19 2 11 5 17 6 16 1 -2 7 -11 15 -20z m-1344 -20 c5 4 5 1 1 -6 -5
-9 -12 -9 -27 -2 -10 6 -19 13 -19 16 0 2 8 0 19 -5 10 -6 22 -7 26 -3z m125
-8 c0 -5 -5 -10 -11 -10 -5 0 -7 5 -4 10 3 6 8 10 11 10 2 0 4 -4 4 -10z m45
-20 c3 -6 -1 -7 -9 -4 -18 7 -21 14 -7 14 6 0 13 -4 16 -10z m958 3 c3 -5 -6
-9 -20 -10 -19 -1 -22 1 -12 8 17 11 26 11 32 2z m-888 -23 c3 -5 1 -10 -4
-10 -6 0 -11 5 -11 10 0 6 2 10 4 10 3 0 8 -4 11 -10z"/>
<path d="M5926 9978 c3 -5 10 -6 15 -3 13 9 11 12 -6 12 -8 0 -12 -4 -9 -9z"/>
<path d="M1655 6609 c-4 -6 -5 -12 -2 -15 2 -3 7 2 10 11 7 17 1 20 -8 4z"/>
<path d="M4645 251 c-3 -5 -2 -12 3 -15 5 -3 9 1 9 9 0 17 -3 19 -12 6z"/>
<path d="M2718 10183 c6 -3 10 -9 7 -14 -4 -5 1 -6 9 -3 23 9 19 20 -6 21 -13
0 -17 -1 -10 -4z"/>
<path d="M2553 10158 c1 -7 -4 -12 -11 -10 -8 1 -11 -2 -7 -8 5 -8 11 -8 21 1
7 6 11 15 8 20 -8 13 -14 11 -11 -3z"/>
<path d="M2630 10166 c0 -2 7 -7 16 -10 8 -3 12 -2 9 4 -6 10 -25 14 -25 6z"/>
<path d="M3055 10160 c-3 -6 1 -7 9 -4 18 7 21 14 7 14 -6 0 -13 -4 -16 -10z"/>
<path d="M3118 10159 c-7 -4 2 -7 20 -5 17 1 34 4 36 7 8 8 -43 6 -56 -2z"/>
<path d="M3256 10152 c-2 -4 0 -14 6 -22 8 -12 9 -12 5 2 -3 9 -1 19 6 22 9 3
9 5 0 5 -6 1 -14 -3 -17 -7z"/>
<path d="M3530 10085 c0 -8 2 -15 4 -15 2 0 6 7 10 15 3 8 1 15 -4 15 -6 0
-10 -7 -10 -15z"/>
<path d="M3696 10082 c-3 -5 1 -9 9 -9 8 0 12 4 9 9 -3 4 -7 8 -9 8 -2 0 -6
-4 -9 -8z"/>
<path d="M3635 10060 c3 -5 8 -10 11 -10 2 0 4 5 4 10 0 6 -5 10 -11 10 -5 0
-7 -4 -4 -10z"/>
<path d="M6310 10059 c0 -5 5 -7 10 -4 6 3 10 8 10 11 0 2 -4 4 -10 4 -5 0
-10 -5 -10 -11z"/>
<path d="M3762 10046 c-33 -19 -37 -25 -13 -23 11 1 21 5 21 10 0 4 4 6 8 3 5
-3 9 1 9 9 0 8 -1 15 -1 14 -1 -1 -11 -7 -24 -13z"/>
<path d="M3996 10033 c-6 -14 -5 -15 5 -6 7 7 10 15 7 18 -3 3 -9 -2 -12 -12z"/>
<path d="M6290 10040 c0 -5 5 -10 11 -10 5 0 7 5 4 10 -3 6 -8 10 -11 10 -2 0
-4 -4 -4 -10z"/>
<path d="M6606 10042 c-3 -5 1 -9 9 -9 8 0 15 4 15 9 0 4 -4 8 -9 8 -6 0 -12
-4 -15 -8z"/>
<path d="M6726 10035 c-3 -8 0 -17 6 -21 6 -4 8 -3 4 4 -3 5 -1 12 6 14 8 3 9
6 1 11 -6 4 -13 0 -17 -8z"/>
<path d="M5878 10008 c5 -21 4 -22 -14 -8 -17 14 -18 13 -7 -1 7 -9 9 -20 5
-25 -4 -4 1 -2 11 5 18 15 22 36 8 45 -5 4 -7 -4 -3 -16z"/>
<path d="M2273 9995 c0 -6 6 -12 12 -12 6 0 12 6 12 12 0 6 -6 12 -12 12 -6 0
-12 -6 -12 -12z"/>
<path d="M4045 10000 c3 -5 8 -10 11 -10 2 0 4 5 4 10 0 6 -5 10 -11 10 -5 0
-7 -4 -4 -10z"/>
<path d="M4070 10006 c0 -2 7 -9 15 -16 13 -11 14 -10 9 4 -5 14 -24 23 -24
12z"/>
<path d="M4174 9994 c-18 -14 -18 -15 4 -4 12 6 22 13 22 15 0 8 -5 6 -26 -11z"/>
<path d="M4284 9996 c1 -8 5 -18 8 -22 4 -3 5 1 4 10 -1 8 -5 18 -8 22 -4 3
-5 -1 -4 -10z"/>
<path d="M6876 9987 c3 -10 9 -15 12 -12 3 3 0 11 -7 18 -10 9 -11 8 -5 -6z"/>
<path d="M4255 9981 c-3 -5 -1 -12 5 -16 5 -3 10 1 10 9 0 18 -6 21 -15 7z"/>
<path d="M4556 9976 c6 -16 5 -17 -17 -7 -23 12 -23 11 -5 -3 24 -19 48 -4 27
17 -10 10 -11 8 -5 -7z"/>
<path d="M4595 9980 c6 -8 10 -19 10 -25 0 -5 9 -8 20 -7 11 2 32 4 48 5 15 1
27 5 27 9 0 4 -18 6 -40 3 -28 -4 -39 -2 -36 7 1 7 1 9 -2 5 -2 -4 -11 -2 -20
5 -13 11 -14 11 -7 -2z"/>
<path d="M4733 9973 c-3 -7 -9 -10 -14 -7 -5 3 -9 0 -9 -5 0 -16 20 -13 26 4
4 8 10 13 14 10 5 -3 11 -2 14 3 3 5 -2 9 -10 9 -9 0 -18 -6 -21 -14z"/>
<path d="M2238 9973 c7 -3 16 -2 19 1 4 3 -2 6 -13 5 -11 0 -14 -3 -6 -6z"/>
<path d="M4766 9962 c-3 -5 1 -9 9 -9 8 0 15 4 15 9 0 4 -4 8 -9 8 -6 0 -12
-4 -15 -8z"/>
<path d="M5097 9956 c-3 -8 -2 -18 3 -21 13 -8 20 9 11 24 -6 10 -10 9 -14 -3z"/>
<path d="M5210 9955 c0 -8 4 -15 10 -15 5 0 7 7 4 15 -4 8 -8 15 -10 15 -2 0
-4 -7 -4 -15z"/>
<path d="M5235 9960 c3 -5 8 -10 11 -10 2 0 4 5 4 10 0 6 -5 10 -11 10 -5 0
-7 -4 -4 -10z"/>
<path d="M5297 9955 c-4 -8 -2 -17 3 -20 6 -4 10 3 10 14 0 25 -6 27 -13 6z"/>
<path d="M5630 9961 c0 -5 7 -15 17 -22 15 -13 15 -12 4 9 -12 23 -21 28 -21
13z"/>
<path d="M6976 9913 c-6 -14 -5 -15 5 -6 7 7 10 15 7 18 -3 3 -9 -2 -12 -12z"/>
<path d="M2190 9889 c0 -5 5 -7 10 -4 6 3 10 8 10 11 0 2 -4 4 -10 4 -5 0 -10
-5 -10 -11z"/>
<path d="M2140 9864 c0 -2 9 -8 20 -14 15 -8 18 -8 14 3 -4 11 -34 21 -34 11z"/>
<path d="M7075 9831 c-3 -5 -2 -12 3 -15 5 -3 9 1 9 9 0 17 -3 19 -12 6z"/>
<path d="M7141 9766 c-2 -18 31 -45 47 -39 10 4 14 3 10 -2 -9 -10 10 -35 26
-35 6 0 4 5 -4 10 -10 6 -11 10 -2 10 6 0 12 5 12 11 0 5 -4 8 -9 4 -5 -3 -13
0 -16 6 -4 5 -13 8 -21 5 -9 -4 -14 2 -14 17 0 16 -3 18 -9 8 -7 -11 -9 -11
-14 0 -3 8 -6 10 -6 5z"/>
<path d="M2070 9740 c0 -5 5 -10 11 -10 5 0 7 5 4 10 -3 6 -8 10 -11 10 -2 0
-4 -4 -4 -10z"/>
<path d="M7247 9673 c3 -7 6 -13 8 -13 2 0 5 6 8 13 3 8 -1 14 -8 14 -7 0 -11
-6 -8 -14z"/>
<path d="M7268 9643 c7 -3 16 -2 19 1 4 3 -2 6 -13 5 -11 0 -14 -3 -6 -6z"/>
<path d="M1976 9554 c-4 -10 -14 -14 -26 -11 -11 3 -18 1 -14 -4 9 -15 30 -10
49 11 10 11 13 20 8 20 -6 0 -14 -7 -17 -16z"/>
<path d="M7415 9400 c-4 -6 -10 -8 -15 -5 -5 3 -11 1 -14 -4 -7 -10 13 -9 31
2 6 4 14 1 16 -5 4 -9 6 -10 6 -1 1 16 -16 26 -24 13z"/>
<path d="M1883 9374 c-17 -18 -16 -23 5 -20 9 2 16 6 15 10 -5 21 -9 23 -20
10z"/>
<path d="M1873 9328 c0 -7 -3 -24 -8 -38 -9 -31 -2 -25 19 18 13 25 14 32 3
32 -8 0 -14 -6 -14 -12z"/>
<path d="M7475 9300 c3 -5 8 -10 11 -10 2 0 4 5 4 10 0 6 -5 10 -11 10 -5 0
-7 -4 -4 -10z"/>
<path d="M7450 9278 c0 -6 3 -8 7 -5 3 4 13 1 22 -6 14 -11 14 -10 2 6 -15 20
-31 22 -31 5z"/>
<path d="M1827 9184 c6 -16 19 -18 27 -5 3 5 -3 11 -13 14 -14 3 -18 1 -14 -9z"/>
<path d="M1813 9130 c-1 -11 2 -20 7 -20 4 0 7 7 6 15 -3 23 -12 26 -13 5z"/>
<path d="M1776 8974 c-9 -24 -2 -26 12 -4 7 11 8 20 3 20 -5 0 -12 -7 -15 -16z"/>
<path d="M1773 8898 c3 -9 1 -19 -6 -22 -9 -3 -9 -5 0 -5 18 -1 23 13 11 29
-8 12 -9 12 -5 -2z"/>
<path d="M1735 8851 c-3 -5 -2 -12 3 -15 5 -3 9 1 9 9 0 17 -3 19 -12 6z"/>
<path d="M1756 8823 c-6 -14 -5 -15 5 -6 7 7 10 15 7 18 -3 3 -9 -2 -12 -12z"/>
<path d="M7668 8563 c7 -3 16 -2 19 1 4 3 -2 6 -13 5 -11 0 -14 -3 -6 -6z"/>
<path d="M7690 8480 c0 -5 5 -10 11 -10 5 0 7 5 4 10 -3 6 -8 10 -11 10 -2 0
-4 -4 -4 -10z"/>
<path d="M1710 8462 c0 -6 9 -12 20 -15 11 -3 20 -3 20 -1 0 2 -9 8 -20 14
-11 6 -20 7 -20 2z"/>
<path d="M1709 8296 c6 -7 8 -16 4 -19 -3 -4 0 -7 9 -7 21 0 18 28 -4 33 -15
4 -17 2 -9 -7z"/>
<path d="M1696 8243 c-6 -14 -5 -15 5 -6 7 7 10 15 7 18 -3 3 -9 -2 -12 -12z"/>
<path d="M7773 8088 c-2 -18 0 -20 7 -8 12 18 13 30 2 30 -4 0 -9 -10 -9 -22z"/>
<path d="M1698 7875 c11 -22 4 -57 -11 -48 -6 3 -7 1 -3 -6 12 -19 33 5 31 36
0 15 -7 29 -14 31 -10 3 -11 0 -3 -13z"/>
<path d="M1675 7860 c-3 -5 -1 -10 4 -10 6 0 11 5 11 10 0 6 -2 10 -4 10 -3 0
-8 -4 -11 -10z"/>
<path d="M7865 7740 c-8 -13 3 -30 18 -29 9 0 9 2 0 6 -7 2 -13 9 -13 15 0 6
7 7 16 4 8 -3 12 -2 9 4 -8 13 -22 13 -30 0z"/>
<path d="M1667 7718 c2 -5 13 -8 24 -8 10 0 19 3 19 8 0 4 -11 7 -24 7 -13 0
-22 -3 -19 -7z"/>
<path d="M7873 7685 c0 -8 4 -12 9 -9 4 3 8 9 8 15 0 5 -4 9 -8 9 -5 0 -9 -7
-9 -15z"/>
<path d="M7880 7660 c-13 -8 -12 -10 3 -10 9 0 17 5 17 10 0 12 -1 12 -20 0z"/>
<path d="M1655 7620 c4 -6 13 -10 21 -10 8 0 14 -9 14 -21 0 -17 -3 -19 -14
-10 -11 9 -16 9 -22 0 -4 -7 -3 -9 4 -5 5 3 12 0 15 -6 4 -10 7 -10 18 -1 23
22 18 41 -12 52 -18 6 -27 6 -24 1z"/>
<path d="M7917 7603 c-4 -3 -7 -11 -7 -17 0 -6 5 -5 12 2 6 6 9 14 7 17 -3 3
-9 2 -12 -2z"/>
<path d="M7907 7563 c-2 -5 -2 -14 -1 -20 1 -7 2 -17 3 -22 0 -5 7 -11 15 -14
11 -4 13 0 10 16 -2 12 -8 23 -14 25 -6 2 -8 8 -4 13 3 5 3 9 0 9 -3 0 -7 -3
-9 -7z"/>
<path d="M1655 7540 c3 -5 8 -10 11 -10 2 0 4 5 4 10 0 6 -5 10 -11 10 -5 0
-7 -4 -4 -10z"/>
<path d="M1677 7403 c-10 -9 -9 -23 1 -23 5 0 9 7 9 15 0 17 -1 18 -10 8z"/>
<path d="M1655 7340 c-8 -13 5 -13 25 0 13 8 13 10 -2 10 -9 0 -20 -4 -23 -10z"/>
<path d="M1671 7316 c-8 -10 -9 -16 -1 -21 6 -3 8 -10 5 -15 -3 -5 -2 -11 3
-14 4 -2 8 11 8 30 0 39 0 38 -15 20z"/>
<path d="M7945 7260 c-3 -5 -5 -10 -3 -11 33 -8 38 -7 27 7 -14 17 -16 17 -24
4z"/>
<path d="M7965 7140 c-3 -6 1 -7 9 -4 18 7 21 14 7 14 -6 0 -13 -4 -16 -10z"/>
<path d="M1635 7020 c-3 -5 -1 -10 4 -10 6 0 11 5 11 10 0 6 -2 10 -4 10 -3 0
-8 -4 -11 -10z"/>
<path d="M7995 7009 c-4 -6 -5 -12 -2 -15 2 -3 7 2 10 11 7 17 1 20 -8 4z"/>
<path d="M1636 6983 c-6 -14 -5 -15 5 -6 7 7 10 15 7 18 -3 3 -9 -2 -12 -12z"/>
<path d="M1650 6960 c0 -5 4 -10 9 -10 6 0 13 5 16 10 3 6 -1 10 -9 10 -9 0
-16 -4 -16 -10z"/>
<path d="M1635 6860 c3 -5 8 -10 11 -10 2 0 4 5 4 10 0 6 -5 10 -11 10 -5 0
-7 -4 -4 -10z"/>
<path d="M7990 6859 c0 -5 5 -7 10 -4 6 3 10 8 10 11 0 2 -4 4 -10 4 -5 0 -10
-5 -10 -11z"/>
<path d="M1649 6768 c-1 -7 -1 -19 0 -27 2 -7 -2 -11 -7 -7 -5 3 -9 -1 -9 -9
0 -8 4 -15 9 -15 4 0 8 5 8 11 0 5 5 7 11 3 8 -5 8 -1 0 13 -7 14 -7 23 1 31
9 9 9 12 0 12 -7 0 -13 -6 -13 -12z"/>
<path d="M7995 6761 c-3 -5 -2 -12 3 -15 5 -3 9 1 9 9 0 17 -3 19 -12 6z"/>
<path d="M7975 6579 c-4 -6 -5 -12 -2 -15 2 -3 7 2 10 11 7 17 1 20 -8 4z"/>
<path d="M7940 6560 c0 -5 5 -10 11 -10 5 0 7 5 4 10 -3 6 -8 10 -11 10 -2 0
-4 -4 -4 -10z"/>
<path d="M7940 6536 c0 -2 7 -9 15 -16 9 -7 15 -8 15 -2 0 5 -7 12 -15 16 -8
3 -15 4 -15 2z"/>
<path d="M7950 6399 c0 -5 -4 -8 -8 -5 -10 6 -10 -40 0 -49 4 -4 5 1 3 12 -1
10 4 26 13 36 9 11 11 17 4 17 -7 0 -12 -5 -12 -11z"/>
<path d="M7894 6202 c0 -10 6 -19 13 -19 8 0 9 6 2 19 -5 10 -11 18 -12 18 -2
0 -3 -8 -3 -18z"/>
<path d="M1616 6184 c-3 -7 -2 -13 2 -13 4 1 14 1 22 0 13 -1 13 -2 0 -11 -8
-5 -12 -12 -9 -15 4 -3 11 1 17 8 9 10 7 17 -8 29 -15 14 -19 14 -24 2z"/>
<path d="M1610 6085 c0 -7 30 -13 34 -7 3 4 -4 9 -15 9 -10 1 -19 0 -19 -2z"/>
<path d="M1596 6003 c-6 -14 -5 -15 5 -6 7 7 10 15 7 18 -3 3 -9 -2 -12 -12z"/>
<path d="M7854 5988 c-4 -7 -4 -10 1 -6 4 4 15 2 24 -5 14 -11 14 -10 2 6 -16
20 -18 21 -27 5z"/>
<path d="M1617 5904 c-3 -3 -3 -12 0 -20 3 -9 0 -13 -8 -11 -8 2 -10 2 -5 -1
4 -2 2 -9 -5 -14 -12 -8 -12 -9 0 -6 19 5 44 45 33 52 -5 3 -12 3 -15 0z"/>
<path d="M7830 5739 c0 -5 5 -7 10 -4 6 3 10 8 10 11 0 2 -4 4 -10 4 -5 0 -10
-5 -10 -11z"/>
<path d="M1585 5730 c-3 -5 -3 -10 1 -10 4 0 -1 -7 -12 -15 -17 -14 -17 -14
10 -3 15 7 23 14 17 16 -6 2 -9 8 -5 13 3 5 3 9 0 9 -3 0 -8 -4 -11 -10z"/>
<path d="M7830 5699 c0 -5 5 -7 10 -4 6 3 10 8 10 11 0 2 -4 4 -10 4 -5 0 -10
-5 -10 -11z"/>
<path d="M8607 5599 c7 -7 15 -10 18 -7 3 3 -2 9 -12 12 -14 6 -15 5 -6 -5z"/>
<path d="M8730 5599 c0 -5 5 -7 10 -4 6 3 10 8 10 11 0 2 -4 4 -10 4 -5 0 -10
-5 -10 -11z"/>
<path d="M8906 5602 c-3 -5 1 -9 9 -9 8 0 12 4 9 9 -3 4 -7 8 -9 8 -2 0 -6 -4
-9 -8z"/>
<path d="M8475 5570 c3 -5 8 -10 11 -10 2 0 4 5 4 10 0 6 -5 10 -11 10 -5 0
-7 -4 -4 -10z"/>
<path d="M8375 5560 c-3 -5 -1 -10 4 -10 6 0 11 5 11 10 0 6 -2 10 -4 10 -3 0
-8 -4 -11 -10z"/>
<path d="M9086 5538 c3 -5 10 -6 15 -3 13 9 11 12 -6 12 -8 0 -12 -4 -9 -9z"/>
<path d="M9336 5447 c3 -10 9 -15 12 -12 3 3 0 11 -7 18 -10 9 -11 8 -5 -6z"/>
<path d="M7966 5442 c-3 -5 1 -9 9 -9 8 0 12 4 9 9 -3 4 -7 8 -9 8 -2 0 -6 -4
-9 -8z"/>
<path d="M1555 5420 c3 -5 8 -10 11 -10 2 0 4 5 4 10 0 6 -5 10 -11 10 -5 0
-7 -4 -4 -10z"/>
<path d="M7935 5420 c-3 -5 -1 -10 4 -10 6 0 11 5 11 10 0 6 -2 10 -4 10 -3 0
-8 -4 -11 -10z"/>
<path d="M7895 5409 c-4 -6 -5 -12 -2 -15 2 -3 7 2 10 11 7 17 1 20 -8 4z"/>
<path d="M9513 5313 c4 -3 -1 -12 -11 -20 -15 -13 -15 -13 4 -4 12 6 25 7 30
3 5 -4 2 1 -5 11 -7 9 -16 17 -19 17 -3 0 -2 -3 1 -7z"/>
<path d="M9635 5161 c-3 -5 -2 -12 3 -15 5 -3 9 1 9 9 0 17 -3 19 -12 6z"/>
<path d="M9626 5127 c7 -21 31 -29 31 -11 0 8 -3 12 -5 9 -3 -3 -11 0 -19 7
-11 8 -12 7 -7 -5z"/>
<path d="M1536 5043 c-6 -14 -5 -15 5 -6 7 7 10 15 7 18 -3 3 -9 -2 -12 -12z"/>
<path d="M1555 4989 c-4 -6 -5 -12 -2 -15 2 -3 7 2 10 11 7 17 1 20 -8 4z"/>
<path d="M1555 4929 c-10 -15 3 -25 16 -12 7 7 7 13 1 17 -6 3 -14 1 -17 -5z"/>
<path d="M1519 4887 c8 -9 16 -15 19 -12 3 3 12 -1 21 -8 14 -10 14 -10 3 5
-10 13 -10 17 0 21 9 4 9 6 1 6 -6 1 -15 -4 -18 -9 -5 -8 -12 -7 -23 2 -15 12
-16 11 -3 -5z"/>
<path d="M1535 4849 c-4 -6 -5 -12 -2 -15 2 -3 7 2 10 11 7 17 1 20 -8 4z"/>
<path d="M1550 4790 c0 -5 5 -10 11 -10 5 0 7 5 4 10 -3 6 -8 10 -11 10 -2 0
-4 -4 -4 -10z"/>
<path d="M1539 4748 c-6 -21 -5 -37 2 -32 5 3 9 0 9 -5 0 -6 5 -11 12 -11 6 0
3 10 -8 22 -17 19 -17 21 -2 15 10 -3 20 -2 23 3 4 6 -3 10 -14 10 -12 0 -21
-1 -22 -2z"/>
<path d="M1545 4680 c-3 -6 1 -7 9 -4 18 7 21 14 7 14 -6 0 -13 -4 -16 -10z"/>
<path d="M1554 4656 c-3 -8 -4 -22 -2 -32 2 -12 -2 -18 -10 -16 -8 1 -11 -2
-7 -8 3 -6 10 -8 15 -5 5 3 11 1 15 -5 3 -5 1 -10 -4 -10 -16 0 -13 -27 2 -33
10 -4 13 3 11 21 -1 15 -3 27 -4 27 -7 0 -5 53 2 63 7 8 7 12 -1 12 -6 0 -14
-6 -17 -14z"/>
<path d="M1554 4474 c-1 -13 1 -24 5 -24 9 0 12 38 3 44 -4 2 -8 -7 -8 -20z"/>
<path d="M9785 4480 c3 -5 8 -10 11 -10 2 0 4 5 4 10 0 6 -5 10 -11 10 -5 0
-7 -4 -4 -10z"/>
<path d="M9754 4468 c-4 -7 -4 -10 1 -6 4 4 15 2 24 -5 14 -11 14 -10 2 6 -16
20 -18 21 -27 5z"/>
<path d="M9745 4440 c-3 -6 1 -7 9 -4 18 7 21 14 7 14 -6 0 -13 -4 -16 -10z"/>
<path d="M1550 4430 c0 -5 5 -10 11 -10 5 0 7 5 4 10 -3 6 -8 10 -11 10 -2 0
-4 -4 -4 -10z"/>
<path d="M9725 4300 c-3 -6 1 -7 9 -4 18 7 21 14 7 14 -6 0 -13 -4 -16 -10z"/>
<path d="M1534 4210 c0 -10 2 -17 5 -15 2 3 10 -3 18 -13 10 -12 9 -8 -2 16
-18 37 -21 39 -21 12z"/>
<path d="M1540 4160 c8 -5 20 -10 25 -10 6 0 3 5 -5 10 -8 5 -19 10 -25 10 -5
0 -3 -5 5 -10z"/>
<path d="M9659 4085 c-1 -3 -2 -8 -3 -12 -1 -5 -5 -13 -9 -20 -4 -6 -3 -14 2
-17 12 -8 19 4 15 27 -2 13 2 17 12 13 9 -3 12 -1 9 4 -6 10 -24 14 -26 5z"/>
<path d="M1557 3993 c-10 -9 -9 -23 1 -23 5 0 9 7 9 15 0 17 -1 18 -10 8z"/>
<path d="M9610 3981 c0 -7 -4 -10 -9 -6 -5 3 -12 1 -16 -5 -3 -5 1 -10 9 -10
17 0 31 18 22 27 -3 4 -6 1 -6 -6z"/>
<path d="M9525 3861 c3 -5 -1 -11 -7 -14 -7 -2 -10 -8 -6 -12 4 -4 14 -1 22 8
14 13 14 16 0 21 -8 3 -13 2 -9 -3z"/>
<path d="M1555 3691 c-3 -5 0 -13 6 -17 7 -4 9 -3 5 4 -3 6 2 13 11 15 16 4
16 5 1 6 -9 0 -19 -3 -23 -8z"/>
<path d="M9390 3686 c0 -2 7 -7 16 -10 8 -3 12 -2 9 4 -6 10 -25 14 -25 6z"/>
<path d="M9310 3618 c0 -4 4 -8 9 -8 6 0 12 4 15 8 3 5 -1 9 -9 9 -8 0 -15 -4
-15 -9z"/>
<path d="M9216 3542 c-3 -5 1 -9 9 -9 8 0 12 4 9 9 -3 4 -7 8 -9 8 -2 0 -6 -4
-9 -8z"/>
<path d="M8963 3443 c-10 -3 -10 -8 1 -19 18 -18 32 -18 17 -1 -6 8 -8 17 -4
20 7 8 4 8 -14 0z"/>
<path d="M1596 3402 c-3 -4 4 -9 15 -9 23 -2 25 3 4 10 -8 4 -16 3 -19 -1z"/>
<path d="M8910 3390 c0 -5 5 -10 11 -10 5 0 7 5 4 10 -3 6 -8 10 -11 10 -2 0
-4 -4 -4 -10z"/>
<path d="M8771 3354 c0 -11 3 -14 6 -6 3 7 2 16 -1 19 -3 4 -6 -2 -5 -13z"/>
<path d="M8700 3350 c-12 -8 -12 -10 3 -16 9 -3 14 -11 10 -17 -3 -5 -1 -7 5
-4 10 7 11 31 1 41 -2 3 -11 1 -19 -4z"/>
<path d="M8600 3330 c-8 -5 -12 -12 -9 -15 4 -3 12 1 19 10 14 17 11 19 -10 5z"/>
<path d="M8306 3295 c3 -8 11 -13 17 -12 7 1 11 -5 9 -13 -3 -12 0 -12 14 2
16 16 18 16 30 0 12 -16 12 -16 11 2 -1 10 4 21 12 24 8 3 11 0 7 -6 -3 -6 -2
-13 3 -16 5 -4 8 1 7 9 -3 23 -14 29 -30 16 -10 -9 -16 -9 -21 -1 -5 8 -10 8
-20 0 -9 -8 -15 -8 -20 0 -10 15 -25 12 -19 -5z"/>
<path d="M8600 3300 c-9 -6 -10 -10 -3 -10 6 0 15 5 18 10 8 12 4 12 -15 0z"/>
<path d="M7884 3289 c-2 -4 -1 -9 3 -11 15 -8 36 -3 40 9 5 13 -35 14 -43 2z"/>
<path d="M7942 3296 c4 -5 3 -15 -3 -22 -7 -8 -7 -14 1 -19 6 -4 9 -1 8 5 -2
7 5 14 15 15 9 2 17 -2 17 -8 0 -7 4 -6 9 3 12 18 2 35 -12 21 -7 -7 -15 -7
-26 1 -9 7 -13 8 -9 4z"/>
<path d="M8011 3274 c0 -11 3 -14 6 -6 3 7 2 16 -1 19 -3 4 -6 -2 -5 -13z"/>
<path d="M8040 3286 c0 -2 8 -10 18 -17 15 -13 16 -12 3 4 -13 16 -21 21 -21
13z"/>
<path d="M8034 3256 c1 -8 5 -18 8 -22 4 -3 5 1 4 10 -1 8 -5 18 -8 22 -4 3
-5 -1 -4 -10z"/>
<path d="M1705 3060 c4 -6 11 -8 16 -5 14 9 11 15 -7 15 -8 0 -12 -5 -9 -10z"/>
<path d="M7623 2905 c4 -5 0 -16 -9 -26 -11 -12 -12 -19 -4 -24 8 -5 8 -10 0
-20 -8 -9 -8 -15 0 -20 11 -7 12 -5 14 28 1 12 7 21 13 20 14 -3 5 35 -11 44
-6 3 -8 2 -3 -2z"/>
<path d="M1837 2783 c-4 -3 -2 -14 3 -24 7 -12 6 -19 -3 -22 -6 -3 -2 -4 10
-4 16 1 19 4 12 14 -6 7 -8 17 -5 22 7 11 -8 24 -17 14z"/>
<path d="M7567 2755 c-8 -19 5 -26 23 -14 11 6 12 9 2 9 -7 0 -10 5 -7 10 3 6
2 10 -3 10 -6 0 -12 -7 -15 -15z"/>
<path d="M7534 2673 c-4 -10 -8 -21 -8 -25 -1 -3 -4 -10 -8 -14 -5 -4 -8 -11
-8 -16 0 -19 31 23 36 47 5 29 0 33 -12 8z"/>
<path d="M1875 2670 c-3 -6 1 -7 9 -4 18 7 21 14 7 14 -6 0 -13 -4 -16 -10z"/>
<path d="M7507 2593 c-12 -12 -7 -23 11 -23 13 0 14 2 3 9 -11 7 -11 9 0 14 8
3 9 6 3 6 -6 1 -14 -2 -17 -6z"/>
<path d="M1950 2560 c0 -5 5 -10 11 -10 5 0 7 5 4 10 -3 6 -8 10 -11 10 -2 0
-4 -4 -4 -10z"/>
<path d="M1930 2540 c0 -5 5 -10 11 -10 5 0 7 5 4 10 -3 6 -8 10 -11 10 -2 0
-4 -4 -4 -10z"/>
<path d="M7483 2496 c-22 -10 -31 -26 -15 -26 10 1 46 29 41 33 -2 2 -14 -2
-26 -7z"/>
<path d="M2250 2085 c0 -16 16 -20 24 -6 3 5 -1 11 -9 15 -9 3 -15 0 -15 -9z"/>
<path d="M2310 1981 c0 -6 6 -11 13 -11 8 0 7 -4 -3 -10 -9 -6 -10 -10 -3 -10
19 0 24 17 8 30 -10 9 -15 9 -15 1z"/>
<path d="M2338 1933 c9 -3 10 -9 3 -17 -7 -8 -5 -12 9 -12 15 0 16 4 9 18 -5
10 -15 18 -22 17 -9 0 -8 -2 1 -6z"/>
<path d="M7305 1860 c-3 -5 -3 -10 1 -10 4 0 0 -8 -9 -17 -14 -16 -14 -19 1
-33 14 -13 15 -12 10 2 -4 8 0 25 8 36 8 12 10 23 5 27 -5 3 -12 1 -16 -5z"/>
<path d="M7270 1720 c-9 -6 -10 -10 -3 -10 6 0 15 5 18 10 8 12 4 12 -15 0z"/>
<path d="M7216 1633 c-6 -14 -5 -15 5 -6 7 7 10 15 7 18 -3 3 -9 -2 -12 -12z"/>
<path d="M2575 1550 c-3 -6 1 -7 9 -4 18 7 21 14 7 14 -6 0 -13 -4 -16 -10z"/>
<path d="M2736 1365 c-3 -10 1 -15 12 -15 16 -1 16 -2 -1 -14 -17 -13 -17 -14
0 -21 39 -17 42 -13 23 26 -23 43 -25 45 -34 24z m34 -45 c0 -5 -2 -10 -4 -10
-3 0 -8 5 -11 10 -3 6 -1 10 4 10 6 0 11 -4 11 -10z"/>
<path d="M7097 1363 c-4 -6 0 -13 8 -17 8 -3 17 0 21 6 4 6 3 8 -4 4 -5 -3
-12 -1 -14 6 -3 8 -6 9 -11 1z"/>
<path d="M2873 1165 c0 -8 4 -12 9 -9 5 3 6 10 3 15 -9 13 -12 11 -12 -6z"/>
<path d="M2915 1134 c2 -4 0 -14 -5 -24 -6 -12 -5 -17 5 -17 14 0 16 31 2 42
-4 3 -5 2 -2 -1z"/>
<path d="M7000 1080 c-12 -7 -10 -9 8 -7 12 0 22 5 22 9 0 11 -12 10 -30 -2z"/>
<path d="M6994 1049 c-3 -6 -2 -15 3 -20 5 -5 9 -1 9 11 0 23 -2 24 -12 9z"/>
<path d="M2981 1004 c0 -11 3 -14 6 -6 3 7 2 16 -1 19 -3 4 -6 -2 -5 -13z"/>
<path d="M6960 980 c-13 -8 -13 -10 2 -10 9 0 20 5 23 10 8 13 -5 13 -25 0z"/>
<path d="M6951 946 c-9 -11 -9 -16 1 -22 7 -4 10 -4 6 1 -4 4 -3 14 3 22 6 7
9 13 6 13 -2 0 -10 -6 -16 -14z"/>
<path d="M3070 886 c0 -2 7 -7 16 -10 8 -3 12 -2 9 4 -6 10 -25 14 -25 6z"/>
<path d="M6940 882 c0 -5 7 -9 15 -9 8 0 12 4 9 9 -3 4 -9 8 -15 8 -5 0 -9 -4
-9 -8z"/>
<path d="M6906 778 c3 -5 10 -6 15 -3 13 9 11 12 -6 12 -8 0 -12 -4 -9 -9z"/>
<path d="M3235 750 c-3 -6 1 -7 9 -4 18 7 21 14 7 14 -6 0 -13 -4 -16 -10z"/>
<path d="M3596 525 c4 -8 8 -15 10 -15 2 0 4 7 4 15 0 8 -4 15 -10 15 -5 0 -7
-7 -4 -15z"/>
<path d="M3790 485 c0 -8 4 -15 10 -15 5 0 7 7 4 15 -4 8 -8 15 -10 15 -2 0
-4 -7 -4 -15z"/>
<path d="M3700 486 c0 -2 8 -10 18 -17 15 -13 16 -12 3 4 -13 16 -21 21 -21
13z"/>
<path d="M3940 474 c0 -2 9 -8 20 -14 15 -8 18 -8 14 3 -4 11 -34 21 -34 11z"/>
<path d="M3815 460 c-3 -5 -1 -10 4 -10 6 0 11 5 11 10 0 6 -2 10 -4 10 -3 0
-8 -4 -11 -10z"/>
<path d="M6770 459 c0 -5 5 -7 10 -4 6 3 10 8 10 11 0 2 -4 4 -10 4 -5 0 -10
-5 -10 -11z"/>
<path d="M4015 440 c3 -5 8 -10 11 -10 2 0 4 5 4 10 0 6 -5 10 -11 10 -5 0 -7
-4 -4 -10z"/>
<path d="M6725 430 c-8 -13 8 -18 29 -10 19 6 19 7 -2 12 -12 4 -24 2 -27 -2z"/>
<path d="M4230 396 c7 -7 14 -6 21 1 9 9 7 12 -9 10 -14 -1 -18 -5 -12 -11z"/>
<path d="M4281 392 c-12 -13 -12 -14 0 -10 7 2 20 -2 28 -9 10 -11 16 -11 21
-3 5 8 12 7 24 -5 9 -9 16 -12 16 -6 0 14 -35 32 -45 23 -3 -4 -12 0 -18 9
-11 15 -14 15 -26 1z"/>
<path d="M4473 312 c2 -12 9 -28 16 -35 7 -6 11 -7 9 -2 -2 6 2 11 7 12 6 0 9
-4 7 -10 -2 -7 0 -9 3 -5 10 10 47 -11 40 -22 -3 -6 1 -7 9 -4 12 5 10 10 -7
27 -12 12 -25 23 -29 23 -5 1 -10 3 -13 4 -3 1 -10 3 -15 4 -6 0 -15 8 -20 16
-8 12 -9 10 -7 -8z"/>
<path d="M4566 292 c-3 -6 -1 -14 5 -17 14 -9 20 -2 10 14 -6 8 -11 9 -15 3z"/>
<path d="M6635 249 c-4 -6 -5 -12 -2 -15 2 -3 7 2 10 11 7 17 1 20 -8 4z"/>
<path d="M4594 222 c4 -3 14 -7 22 -8 9 -1 13 0 10 4 -4 3 -14 7 -22 8 -9 1
-13 0 -10 -4z"/>
<path d="M4735 160 c3 -5 8 -10 11 -10 2 0 4 5 4 10 0 6 -5 10 -11 10 -5 0 -7
-4 -4 -10z"/>
<path d="M6466 131 c-11 -12 -14 -21 -7 -26 10 -6 15 1 12 18 -2 13 11 8 26
-10 12 -16 13 -15 2 7 -6 14 -13 26 -14 28 -1 1 -10 -6 -19 -17z"/>
<path d="M4915 109 c-15 -6 -11 -7 15 -6 21 1 35 -3 35 -10 0 -6 4 -15 9 -20
5 -5 6 -3 2 5 -11 18 5 15 21 -5 13 -16 13 -16 4 3 -15 32 -53 46 -86 33z"/>
<path d="M6320 59 c-17 -14 -21 -22 -12 -26 6 -2 10 -9 7 -14 -4 -5 1 -6 10
-3 14 6 14 8 -2 20 -16 12 -17 13 -1 14 9 0 20 5 23 11 12 19 0 18 -25 -2z"/>
<path d="M6353 33 c0 -9 4 -10 14 -2 7 6 13 12 13 14 0 1 -6 2 -13 2 -8 0 -14
-6 -14 -14z"/>
</g>
</svg>
